<svg xmlns="http://www.w3.org/2000/svg" xmlns:xlink="http://www.w3.org/1999/xlink" width="500" zoomAndPan="magnify" viewBox="0 0 375 374.999991" height="500" preserveAspectRatio="xMidYMid meet" version="1.0"><defs><g/><clipPath id="a82ffdcfb2"><path d="M 72.613281 45.234375 L 302.113281 45.234375 L 302.113281 225.984375 L 72.613281 225.984375 Z M 72.613281 45.234375 " clip-rule="nonzero"/></clipPath></defs><g clip-path="url(#a82ffdcfb2)"><path fill="#877eff" d="M 105.179688 195.628906 L 102.742188 196.132812 L 102.742188 195.074219 Z M 125.617188 225.988281 L 127.179688 225.988281 L 127.179688 225.941406 C 126.628906 225.941406 126.125 225.988281 125.617188 225.988281 Z M 202.691406 195.902344 C 197.960938 204.214844 194.5625 221.257812 210.824219 219.375 Z M 229.335938 191.675781 L 230.574219 185.933594 L 236.316406 184.695312 L 230.574219 183.453125 L 229.335938 177.714844 L 228.09375 183.453125 L 222.351562 184.695312 L 228.09375 185.933594 Z M 250.921875 173.441406 L 250.921875 174.542969 C 251.105469 174.359375 251.289062 174.175781 251.519531 173.992188 C 251.289062 173.808594 251.105469 173.625 250.921875 173.441406 Z M 102.742188 195.121094 L 102.742188 196.179688 L 105.179688 195.671875 Z M 105.179688 195.628906 L 102.742188 196.132812 L 102.742188 195.074219 Z M 302.277344 195.855469 C 302.277344 212.484375 288.816406 225.988281 272.144531 225.988281 L 250.875 225.988281 L 250.875 174.542969 C 251.058594 174.359375 251.246094 174.175781 251.472656 173.992188 C 251.289062 173.808594 251.105469 173.625 250.875 173.441406 L 250.875 152.542969 C 250.875 150.613281 252.4375 149.097656 254.320312 149.097656 L 257.351562 149.097656 C 260.570312 149.097656 262.039062 145.054688 259.558594 142.988281 L 257.859375 141.5625 L 239.992188 126.542969 L 227.589844 116.117188 L 209.8125 101.1875 L 200.992188 93.792969 L 191.210938 85.570312 C 189.925781 84.515625 188.039062 84.515625 186.753906 85.570312 L 180.644531 90.714844 L 173.34375 96.871094 L 154.554688 112.671875 L 147.253906 118.828125 L 127.179688 135.730469 L 118.453125 143.078125 C 115.972656 145.148438 117.441406 149.1875 120.65625 149.1875 L 123.6875 149.1875 C 125.019531 149.1875 126.167969 149.925781 126.71875 151.027344 C 126.949219 151.53125 127.132812 152.035156 127.132812 152.632812 L 127.132812 225.988281 C 126.628906 225.988281 126.078125 226.035156 125.570312 226.035156 L 102.742188 226.035156 C 86.117188 225.988281 72.613281 212.484375 72.613281 195.855469 C 72.613281 181.710938 82.347656 169.859375 95.53125 166.597656 C 95.53125 166.320312 95.53125 166 95.53125 165.726562 C 95.53125 156.8125 99.390625 148.820312 105.589844 143.265625 C 99.4375 137.75 95.578125 129.757812 95.578125 120.847656 C 95.578125 104.222656 109.035156 90.761719 125.664062 90.761719 C 128.328125 90.761719 130.898438 91.085938 133.378906 91.773438 C 135.539062 80.65625 145.371094 72.34375 157.128906 72.34375 C 159.652344 72.34375 162.089844 72.710938 164.386719 73.445312 C 165.394531 57.691406 178.441406 45.242188 194.425781 45.242188 C 211.054688 45.242188 224.511719 58.703125 224.511719 75.328125 C 224.511719 76.660156 224.417969 77.945312 224.28125 79.1875 L 224.511719 79.1875 C 234.617188 79.1875 243.4375 84.929688 247.800781 93.335938 C 251.839844 91.679688 256.25 90.761719 260.84375 90.761719 C 279.859375 90.761719 295.292969 106.195312 295.292969 125.210938 C 295.292969 136.28125 290.058594 146.15625 281.925781 152.449219 C 282.847656 154.65625 283.351562 157.136719 283.351562 159.660156 C 283.351562 162.371094 282.800781 164.945312 281.742188 167.285156 C 293.6875 171.328125 302.277344 182.582031 302.277344 195.855469 Z M 105.179688 195.628906 L 102.742188 195.121094 L 97.046875 193.882812 L 96.128906 189.703125 L 95.257812 185.707031 L 93.511719 193.882812 L 85.335938 195.628906 L 93.511719 197.371094 L 95.257812 205.546875 L 96.082031 201.78125 L 97.046875 197.371094 L 102.742188 196.132812 Z M 133.195312 111.25 L 121.164062 108.675781 L 118.589844 96.640625 L 116.019531 108.675781 L 103.9375 111.25 L 116.019531 113.820312 L 118.589844 125.902344 L 121.164062 113.820312 Z M 274.257812 128.335938 L 269.15625 129.4375 L 274.257812 130.539062 L 275.359375 135.640625 L 276.460938 130.539062 L 281.558594 129.4375 L 276.460938 128.335938 L 275.359375 123.238281 Z M 263.1875 113.589844 L 274.074219 111.25 L 263.1875 108.90625 L 260.84375 98.019531 L 258.5 108.90625 L 250.1875 110.699219 L 247.570312 111.25 L 249.914062 111.753906 L 258.457031 113.589844 L 260.796875 124.476562 Z M 294.972656 195.304688 L 283.398438 192.824219 L 280.917969 181.25 L 278.4375 192.824219 L 272.144531 194.15625 L 266.863281 195.304688 L 272.144531 196.453125 L 278.4375 197.785156 L 280.917969 209.359375 L 283.398438 197.785156 Z M 155.703125 147.488281 L 156.945312 141.746094 L 162.6875 140.507812 L 156.945312 139.265625 L 155.703125 133.527344 L 154.464844 139.265625 L 148.722656 140.507812 L 154.464844 141.746094 Z M 219.089844 163.199219 L 220.882812 154.792969 L 229.289062 153 L 220.882812 151.210938 L 219.089844 142.804688 L 217.300781 151.210938 L 208.894531 153 L 217.300781 154.792969 Z M 228.09375 183.453125 L 222.351562 184.695312 L 228.09375 185.933594 L 229.335938 191.675781 L 230.574219 185.933594 L 236.316406 184.695312 L 230.574219 183.453125 L 229.335938 177.714844 Z M 102.742188 195.121094 L 102.742188 196.179688 L 105.179688 195.671875 Z M 250.738281 46.34375 L 248.949219 54.75 L 240.542969 56.542969 L 248.949219 58.332031 L 250.738281 66.738281 L 252.53125 58.332031 L 260.9375 56.542969 L 252.53125 54.75 Z M 123.828125 65.683594 L 122.679688 71.148438 L 117.210938 72.34375 L 122.679688 73.492188 L 123.828125 78.957031 L 124.976562 73.492188 L 130.441406 72.34375 L 124.976562 71.195312 Z M 209.445312 225.988281 L 237.554688 225.988281 C 234.386719 221.671875 229.289062 218.867188 223.5 218.867188 C 221.34375 218.867188 219.230469 219.28125 217.300781 220.015625 L 206.734375 189.011719 L 199.570312 186.027344 C 199.660156 185.980469 189.464844 178.953125 187.445312 174.683594 C 185.515625 170.730469 184.597656 163.199219 184.136719 159.203125 C 184.871094 159.386719 185.605469 159.476562 186.386719 159.476562 C 191.300781 159.476562 195.296875 155.480469 195.296875 150.566406 C 195.296875 145.652344 191.300781 141.65625 186.386719 141.65625 C 181.472656 141.65625 177.476562 145.652344 177.476562 150.566406 C 177.476562 152.175781 177.890625 153.691406 178.671875 154.976562 C 173.34375 155.941406 168.199219 160.855469 163.464844 167.699219 C 159.976562 172.753906 156.714844 178.863281 153.773438 185.199219 C 147.070312 199.667969 142.109375 215.332031 140.039062 222.222656 C 139.351562 224.519531 138.984375 225.851562 138.984375 225.851562 L 148.21875 225.851562 L 162.273438 201.828125 L 159.699219 189.839844 C 162.042969 196.40625 182.851562 225.851562 182.851562 225.851562 L 194.105469 225.851562 C 194.105469 225.851562 177.613281 194.617188 176.601562 180.605469 C 175.363281 178.679688 174.078125 175.691406 173.710938 172.339844 C 174.078125 173.761719 175.085938 175.875 176.648438 177.941406 C 176.648438 177.941406 185.285156 185.980469 194.289062 186.578125 L 204.621094 190.894531 L 214.910156 221.027344 C 212.796875 222.3125 210.914062 223.96875 209.445312 225.988281 Z M 209.445312 225.988281 " fill-opacity="1" fill-rule="nonzero"/></g><g fill="#877eff" fill-opacity="1"><g transform="translate(14.651174, 317.414173)"><g><path d="M 3.886719 -13.304688 L 6.148438 -5.722656 L 8.460938 -13.304688 L 12.109375 -13.304688 L 7.878906 0 L 4.417969 0 L 0.238281 -13.304688 Z M 3.886719 -13.304688 "/></g></g></g><g fill="#877eff" fill-opacity="1"><g transform="translate(26.995339, 317.414173)"><g><path d="M 10.03125 -10.644531 L 6.492188 -10.644531 L 6.492188 -9.046875 C 5.988281 -10.21875 5.214844 -10.832031 4.257812 -10.832031 C 1.890625 -10.832031 0.558594 -8.835938 0.558594 -5.324219 C 0.558594 -1.808594 1.890625 0.1875 4.257812 0.1875 C 5.214844 0.1875 5.988281 -0.425781 6.492188 -1.597656 L 6.492188 0 L 10.03125 0 Z M 5.296875 -3.140625 C 4.472656 -3.140625 4.019531 -3.9375 4.019531 -5.324219 C 4.019531 -6.707031 4.472656 -7.503906 5.296875 -7.503906 C 6.066406 -7.503906 6.492188 -6.707031 6.492188 -5.324219 C 6.492188 -3.9375 6.066406 -3.140625 5.296875 -3.140625 Z M 5.296875 -3.140625 "/></g></g></g><g fill="#877eff" fill-opacity="1"><g transform="translate(37.769879, 317.414173)"><g><path d="M 9.980469 -3.9375 C 9.605469 -1.304688 7.902344 0.1875 5.296875 0.1875 C 2.261719 0.1875 0.558594 -1.808594 0.558594 -5.324219 C 0.558594 -8.835938 2.261719 -10.832031 5.296875 -10.832031 C 7.929688 -10.832031 9.632812 -9.339844 9.980469 -6.707031 L 6.652344 -6.09375 C 6.519531 -6.972656 6.015625 -7.503906 5.296875 -7.503906 C 4.472656 -7.503906 4.019531 -6.707031 4.019531 -5.324219 C 4.019531 -3.9375 4.472656 -3.140625 5.296875 -3.140625 C 6.015625 -3.140625 6.519531 -3.671875 6.652344 -4.550781 Z M 9.980469 -3.9375 "/></g></g></g><g fill="#877eff" fill-opacity="1"><g transform="translate(48.278385, 317.414173)"><g><path d="M 10.03125 -10.644531 L 6.492188 -10.644531 L 6.492188 -9.046875 C 5.988281 -10.21875 5.214844 -10.832031 4.257812 -10.832031 C 1.890625 -10.832031 0.558594 -8.835938 0.558594 -5.324219 C 0.558594 -1.808594 1.890625 0.1875 4.257812 0.1875 C 5.214844 0.1875 5.988281 -0.425781 6.492188 -1.597656 L 6.492188 0 L 10.03125 0 Z M 5.296875 -3.140625 C 4.472656 -3.140625 4.019531 -3.9375 4.019531 -5.324219 C 4.019531 -6.707031 4.472656 -7.503906 5.296875 -7.503906 C 6.066406 -7.503906 6.492188 -6.707031 6.492188 -5.324219 C 6.492188 -3.9375 6.066406 -3.140625 5.296875 -3.140625 Z M 5.296875 -3.140625 "/></g></g></g><g fill="#877eff" fill-opacity="1"><g transform="translate(59.052924, 317.414173)"><g><path d="M 9.101562 -2.792969 C 8.914062 -0.878906 7.398438 0.1875 4.816406 0.1875 C 2.207031 0.1875 0.746094 -1.382812 0.746094 -4.203125 L 0.746094 -12.800781 L 4.285156 -12.800781 L 4.285156 -9.792969 L 6.226562 -9.792969 L 6.226562 -6.679688 L 4.285156 -6.679688 L 4.285156 -5.082031 C 4.285156 -3.859375 4.710938 -3.167969 5.480469 -3.167969 C 6.09375 -3.167969 6.492188 -3.539062 6.519531 -4.203125 Z M 9.101562 -2.792969 "/></g></g></g><g fill="#877eff" fill-opacity="1"><g transform="translate(68.497269, 317.414173)"><g><path d="M 2.527344 -11.335938 C 3.671875 -11.335938 4.3125 -11.949219 4.3125 -13.011719 C 4.3125 -14.050781 3.671875 -14.664062 2.527344 -14.664062 C 1.410156 -14.664062 0.746094 -14.050781 0.746094 -13.011719 C 0.746094 -11.949219 1.410156 -11.335938 2.527344 -11.335938 Z M 4.3125 -10.644531 L 0.746094 -10.644531 L 0.746094 0 L 4.3125 0 Z M 4.3125 -10.644531 "/></g></g></g><g fill="#877eff" fill-opacity="1"><g transform="translate(73.551997, 317.414173)"><g><path d="M 5.296875 0.1875 C 8.328125 0.1875 10.03125 -1.808594 10.03125 -5.324219 C 10.03125 -8.835938 8.328125 -10.832031 5.296875 -10.832031 C 2.261719 -10.832031 0.558594 -8.835938 0.558594 -5.324219 C 0.558594 -1.808594 2.261719 0.1875 5.296875 0.1875 Z M 5.296875 -3.140625 C 4.472656 -3.140625 4.019531 -3.9375 4.019531 -5.324219 C 4.019531 -6.707031 4.472656 -7.503906 5.296875 -7.503906 C 6.121094 -7.503906 6.574219 -6.707031 6.574219 -5.324219 C 6.574219 -3.9375 6.121094 -3.140625 5.296875 -3.140625 Z M 5.296875 -3.140625 "/></g></g></g><g fill="#877eff" fill-opacity="1"><g transform="translate(84.140305, 317.414173)"><g><path d="M 6.867188 -10.832031 C 5.695312 -10.804688 4.816406 -10.191406 4.285156 -9.023438 L 4.285156 -10.644531 L 0.746094 -10.644531 L 0.746094 0 L 4.285156 0 L 4.285156 -5.507812 C 4.496094 -6.734375 4.949219 -7.398438 5.5625 -7.398438 C 6.28125 -7.398438 6.679688 -6.464844 6.679688 -4.816406 L 6.679688 0 L 10.21875 0 L 10.21875 -6.175781 C 10.21875 -9.15625 9.023438 -10.832031 6.867188 -10.832031 Z M 6.867188 -10.832031 "/></g></g></g><g fill="#877eff" fill-opacity="1"><g transform="translate(94.994659, 317.414173)"><g/></g></g><g fill="#877eff" fill-opacity="1"><g transform="translate(98.160513, 317.414173)"><g><path d="M 8.886719 -5.75 C 9.765625 -6.441406 10.21875 -7.558594 10.21875 -9.046875 C 10.21875 -11.761719 8.753906 -13.304688 6.175781 -13.304688 L 0.746094 -13.304688 L 0.746094 0 L 4.285156 0 L 4.285156 -4.761719 L 5.480469 -4.761719 C 6.414062 -4.496094 6.917969 -3.753906 6.917969 -2.609375 L 6.917969 0 L 10.164062 0 L 10.164062 -2.183594 C 10.164062 -3.777344 9.714844 -4.976562 8.886719 -5.75 Z M 5.882812 -7.878906 L 4.285156 -7.878906 L 4.285156 -10.085938 L 5.882812 -10.085938 C 6.625 -10.085938 7.078125 -9.6875 7.078125 -8.96875 C 7.078125 -8.277344 6.625 -7.878906 5.882812 -7.878906 Z M 5.882812 -7.878906 "/></g></g></g><g fill="#877eff" fill-opacity="1"><g transform="translate(109.014867, 317.414173)"><g><path d="M 10.03125 -5.324219 C 10.03125 -8.835938 8.328125 -10.832031 5.296875 -10.832031 C 2.261719 -10.832031 0.558594 -8.835938 0.558594 -5.324219 C 0.558594 -1.808594 2.261719 0.1875 5.296875 0.1875 C 7.476562 0.1875 9.046875 -0.984375 9.714844 -3.058594 L 6.28125 -3.726562 C 6.148438 -3.21875 5.800781 -2.953125 5.347656 -2.953125 C 4.789062 -2.953125 4.390625 -3.351562 4.179688 -4.097656 L 9.898438 -4.097656 C 9.980469 -4.496094 10.03125 -4.921875 10.03125 -5.324219 Z M 6.414062 -6.332031 L 4.097656 -6.332031 C 4.257812 -7.210938 4.65625 -7.691406 5.296875 -7.691406 C 5.75 -7.691406 6.148438 -7.210938 6.414062 -6.332031 Z M 6.414062 -6.332031 "/></g></g></g><g fill="#877eff" fill-opacity="1"><g transform="translate(119.603175, 317.414173)"><g><path d="M 6.867188 -10.832031 C 5.695312 -10.804688 4.816406 -10.191406 4.285156 -9.023438 L 4.285156 -10.644531 L 0.746094 -10.644531 L 0.746094 0 L 4.285156 0 L 4.285156 -5.507812 C 4.496094 -6.734375 4.949219 -7.398438 5.5625 -7.398438 C 6.28125 -7.398438 6.679688 -6.464844 6.679688 -4.816406 L 6.679688 0 L 10.21875 0 L 10.21875 -6.175781 C 10.21875 -9.15625 9.023438 -10.832031 6.867188 -10.832031 Z M 6.867188 -10.832031 "/></g></g></g><g fill="#877eff" fill-opacity="1"><g transform="translate(130.457529, 317.414173)"><g><path d="M 9.101562 -2.792969 C 8.914062 -0.878906 7.398438 0.1875 4.816406 0.1875 C 2.207031 0.1875 0.746094 -1.382812 0.746094 -4.203125 L 0.746094 -12.800781 L 4.285156 -12.800781 L 4.285156 -9.792969 L 6.226562 -9.792969 L 6.226562 -6.679688 L 4.285156 -6.679688 L 4.285156 -5.082031 C 4.285156 -3.859375 4.710938 -3.167969 5.480469 -3.167969 C 6.09375 -3.167969 6.492188 -3.539062 6.519531 -4.203125 Z M 9.101562 -2.792969 "/></g></g></g><g fill="#877eff" fill-opacity="1"><g transform="translate(139.901875, 317.414173)"><g><path d="M 10.03125 -10.644531 L 6.492188 -10.644531 L 6.492188 -9.046875 C 5.988281 -10.21875 5.214844 -10.832031 4.257812 -10.832031 C 1.890625 -10.832031 0.558594 -8.835938 0.558594 -5.324219 C 0.558594 -1.808594 1.890625 0.1875 4.257812 0.1875 C 5.214844 0.1875 5.988281 -0.425781 6.492188 -1.597656 L 6.492188 0 L 10.03125 0 Z M 5.296875 -3.140625 C 4.472656 -3.140625 4.019531 -3.9375 4.019531 -5.324219 C 4.019531 -6.707031 4.472656 -7.503906 5.296875 -7.503906 C 6.066406 -7.503906 6.492188 -6.707031 6.492188 -5.324219 C 6.492188 -3.9375 6.066406 -3.140625 5.296875 -3.140625 Z M 5.296875 -3.140625 "/></g></g></g><g fill="#877eff" fill-opacity="1"><g transform="translate(150.676414, 317.414173)"><g><path d="M 4.3125 -13.304688 L 0.746094 -13.304688 L 0.746094 0 L 4.3125 0 Z M 4.3125 -13.304688 "/></g></g></g><g fill="#877eff" fill-opacity="1"><g transform="translate(155.731142, 317.414173)"><g/></g></g><g fill="#877eff" fill-opacity="1"><g transform="translate(158.896995, 317.414173)"><g><path d="M 9.847656 0 L 13.414062 0 C 13.066406 -0.929688 12.375 -1.835938 11.550781 -2.6875 C 12.109375 -3.726562 12.429688 -5.003906 12.429688 -6.546875 L 8.96875 -6.546875 C 8.96875 -6.039062 8.886719 -5.613281 8.753906 -5.242188 L 7.769531 -6.28125 C 8.96875 -7 10.007812 -8.035156 10.007812 -9.738281 C 10.007812 -12.160156 8.675781 -13.519531 6.28125 -13.519531 C 3.644531 -13.519531 2.15625 -12.292969 2.15625 -9.632812 C 2.15625 -8.78125 2.476562 -7.902344 2.902344 -7.050781 C 1.648438 -6.359375 0.480469 -5.535156 0.480469 -3.753906 C 0.480469 -1.222656 2.476562 0.160156 6.015625 0.160156 C 7.398438 0.160156 8.570312 -0.105469 9.5 -0.640625 C 9.660156 -0.425781 9.765625 -0.214844 9.847656 0 Z M 5.613281 -9.367188 C 5.613281 -9.953125 5.90625 -10.273438 6.175781 -10.273438 C 6.414062 -10.273438 6.546875 -9.980469 6.546875 -9.472656 C 6.546875 -9.023438 6.253906 -8.675781 5.800781 -8.355469 C 5.695312 -8.730469 5.613281 -9.046875 5.613281 -9.367188 Z M 6.015625 -3.058594 C 4.683594 -3.058594 3.9375 -3.566406 3.9375 -4.179688 C 3.9375 -4.523438 4.285156 -4.789062 4.816406 -5.054688 C 5.375 -4.445312 5.988281 -3.886719 6.546875 -3.273438 C 6.464844 -3.140625 6.226562 -3.058594 6.015625 -3.058594 Z M 6.015625 -3.058594 "/></g></g></g><g fill="#877eff" fill-opacity="1"><g transform="translate(172.54474, 317.414173)"><g/></g></g><g fill="#877eff" fill-opacity="1"><g transform="translate(175.710594, 317.414173)"><g><path d="M 6.890625 -5.480469 L 10.300781 -4.871094 C 9.738281 -1.625 8.035156 0.1875 5.535156 0.1875 C 2.367188 0.1875 0.613281 -2.289062 0.613281 -6.652344 C 0.613281 -11.015625 2.367188 -13.492188 5.535156 -13.492188 C 8.035156 -13.492188 9.765625 -11.683594 10.300781 -8.460938 L 6.890625 -7.824219 C 6.707031 -9.207031 6.226562 -9.953125 5.535156 -9.953125 C 4.605469 -9.953125 4.070312 -8.78125 4.070312 -6.652344 C 4.070312 -4.523438 4.605469 -3.351562 5.535156 -3.351562 C 6.253906 -3.351562 6.757812 -4.125 6.890625 -5.480469 Z M 6.890625 -5.480469 "/></g></g></g><g fill="#877eff" fill-opacity="1"><g transform="translate(186.618149, 317.414173)"><g><path d="M 5.296875 0.1875 C 8.328125 0.1875 10.03125 -1.808594 10.03125 -5.324219 C 10.03125 -8.835938 8.328125 -10.832031 5.296875 -10.832031 C 2.261719 -10.832031 0.558594 -8.835938 0.558594 -5.324219 C 0.558594 -1.808594 2.261719 0.1875 5.296875 0.1875 Z M 5.296875 -3.140625 C 4.472656 -3.140625 4.019531 -3.9375 4.019531 -5.324219 C 4.019531 -6.707031 4.472656 -7.503906 5.296875 -7.503906 C 6.121094 -7.503906 6.574219 -6.707031 6.574219 -5.324219 C 6.574219 -3.9375 6.121094 -3.140625 5.296875 -3.140625 Z M 5.296875 -3.140625 "/></g></g></g><g fill="#877eff" fill-opacity="1"><g transform="translate(197.206457, 317.414173)"><g><path d="M 12.746094 -10.832031 C 11.363281 -10.804688 10.433594 -9.953125 9.953125 -8.410156 C 9.472656 -9.980469 8.410156 -10.832031 6.867188 -10.832031 C 5.695312 -10.804688 4.816406 -10.191406 4.285156 -9.023438 L 4.285156 -10.644531 L 0.746094 -10.644531 L 0.746094 0 L 4.285156 0 L 4.285156 -5.507812 C 4.496094 -6.734375 4.949219 -7.398438 5.5625 -7.398438 C 6.28125 -7.398438 6.679688 -6.464844 6.679688 -4.816406 L 6.679688 0 L 10.21875 0 L 10.21875 -5.667969 C 10.457031 -6.785156 10.882812 -7.398438 11.441406 -7.398438 C 12.160156 -7.398438 12.5625 -6.464844 12.5625 -4.816406 L 12.5625 0 L 16.101562 0 L 16.101562 -6.175781 C 16.101562 -9.15625 14.902344 -10.832031 12.746094 -10.832031 Z M 12.746094 -10.832031 "/></g></g></g><g fill="#877eff" fill-opacity="1"><g transform="translate(213.913639, 317.414173)"><g><path d="M 12.746094 -10.832031 C 11.363281 -10.804688 10.433594 -9.953125 9.953125 -8.410156 C 9.472656 -9.980469 8.410156 -10.832031 6.867188 -10.832031 C 5.695312 -10.804688 4.816406 -10.191406 4.285156 -9.023438 L 4.285156 -10.644531 L 0.746094 -10.644531 L 0.746094 0 L 4.285156 0 L 4.285156 -5.507812 C 4.496094 -6.734375 4.949219 -7.398438 5.5625 -7.398438 C 6.28125 -7.398438 6.679688 -6.464844 6.679688 -4.816406 L 6.679688 0 L 10.21875 0 L 10.21875 -5.667969 C 10.457031 -6.785156 10.882812 -7.398438 11.441406 -7.398438 C 12.160156 -7.398438 12.5625 -6.464844 12.5625 -4.816406 L 12.5625 0 L 16.101562 0 L 16.101562 -6.175781 C 16.101562 -9.15625 14.902344 -10.832031 12.746094 -10.832031 Z M 12.746094 -10.832031 "/></g></g></g><g fill="#877eff" fill-opacity="1"><g transform="translate(230.620821, 317.414173)"><g><path d="M 10.03125 -5.324219 C 10.03125 -8.835938 8.328125 -10.832031 5.296875 -10.832031 C 2.261719 -10.832031 0.558594 -8.835938 0.558594 -5.324219 C 0.558594 -1.808594 2.261719 0.1875 5.296875 0.1875 C 7.476562 0.1875 9.046875 -0.984375 9.714844 -3.058594 L 6.28125 -3.726562 C 6.148438 -3.21875 5.800781 -2.953125 5.347656 -2.953125 C 4.789062 -2.953125 4.390625 -3.351562 4.179688 -4.097656 L 9.898438 -4.097656 C 9.980469 -4.496094 10.03125 -4.921875 10.03125 -5.324219 Z M 6.414062 -6.332031 L 4.097656 -6.332031 C 4.257812 -7.210938 4.65625 -7.691406 5.296875 -7.691406 C 5.75 -7.691406 6.148438 -7.210938 6.414062 -6.332031 Z M 6.414062 -6.332031 "/></g></g></g><g fill="#877eff" fill-opacity="1"><g transform="translate(241.209128, 317.414173)"><g><path d="M 6.785156 -10.832031 C 5.640625 -10.804688 4.789062 -10.191406 4.285156 -9.046875 L 4.285156 -10.644531 L 0.746094 -10.644531 L 0.746094 0 L 4.285156 0 L 4.285156 -4.417969 C 4.472656 -6.332031 4.898438 -7.398438 5.507812 -7.398438 C 6.121094 -7.398438 6.679688 -7.078125 7.105469 -6.464844 L 9.472656 -8.941406 C 8.914062 -10.21875 7.902344 -10.832031 6.785156 -10.832031 Z M 6.785156 -10.832031 "/></g></g></g><g fill="#877eff" fill-opacity="1"><g transform="translate(250.919521, 317.414173)"><g><path d="M 9.980469 -3.9375 C 9.605469 -1.304688 7.902344 0.1875 5.296875 0.1875 C 2.261719 0.1875 0.558594 -1.808594 0.558594 -5.324219 C 0.558594 -8.835938 2.261719 -10.832031 5.296875 -10.832031 C 7.929688 -10.832031 9.632812 -9.339844 9.980469 -6.707031 L 6.652344 -6.09375 C 6.519531 -6.972656 6.015625 -7.503906 5.296875 -7.503906 C 4.472656 -7.503906 4.019531 -6.707031 4.019531 -5.324219 C 4.019531 -3.9375 4.472656 -3.140625 5.296875 -3.140625 C 6.015625 -3.140625 6.519531 -3.671875 6.652344 -4.550781 Z M 9.980469 -3.9375 "/></g></g></g><g fill="#877eff" fill-opacity="1"><g transform="translate(261.428026, 317.414173)"><g><path d="M 2.527344 -11.335938 C 3.671875 -11.335938 4.3125 -11.949219 4.3125 -13.011719 C 4.3125 -14.050781 3.671875 -14.664062 2.527344 -14.664062 C 1.410156 -14.664062 0.746094 -14.050781 0.746094 -13.011719 C 0.746094 -11.949219 1.410156 -11.335938 2.527344 -11.335938 Z M 4.3125 -10.644531 L 0.746094 -10.644531 L 0.746094 0 L 4.3125 0 Z M 4.3125 -10.644531 "/></g></g></g><g fill="#877eff" fill-opacity="1"><g transform="translate(266.482769, 317.414173)"><g><path d="M 10.03125 -10.644531 L 6.492188 -10.644531 L 6.492188 -9.046875 C 5.988281 -10.21875 5.214844 -10.832031 4.257812 -10.832031 C 1.890625 -10.832031 0.558594 -8.835938 0.558594 -5.324219 C 0.558594 -1.808594 1.890625 0.1875 4.257812 0.1875 C 5.214844 0.1875 5.988281 -0.425781 6.492188 -1.597656 L 6.492188 0 L 10.03125 0 Z M 5.296875 -3.140625 C 4.472656 -3.140625 4.019531 -3.9375 4.019531 -5.324219 C 4.019531 -6.707031 4.472656 -7.503906 5.296875 -7.503906 C 6.066406 -7.503906 6.492188 -6.707031 6.492188 -5.324219 C 6.492188 -3.9375 6.066406 -3.140625 5.296875 -3.140625 Z M 5.296875 -3.140625 "/></g></g></g><g fill="#877eff" fill-opacity="1"><g transform="translate(277.257308, 317.414173)"><g><path d="M 4.3125 -13.304688 L 0.746094 -13.304688 L 0.746094 0 L 4.3125 0 Z M 4.3125 -13.304688 "/></g></g></g><g fill="#877eff" fill-opacity="1"><g transform="translate(282.31205, 317.414173)"><g/></g></g><g fill="#877eff" fill-opacity="1"><g transform="translate(285.477918, 317.414173)"><g><path d="M 6.890625 -5.480469 L 10.300781 -4.871094 C 9.738281 -1.625 8.035156 0.1875 5.535156 0.1875 C 2.367188 0.1875 0.613281 -2.289062 0.613281 -6.652344 C 0.613281 -11.015625 2.367188 -13.492188 5.535156 -13.492188 C 8.035156 -13.492188 9.765625 -11.683594 10.300781 -8.460938 L 6.890625 -7.824219 C 6.707031 -9.207031 6.226562 -9.953125 5.535156 -9.953125 C 4.605469 -9.953125 4.070312 -8.78125 4.070312 -6.652344 C 4.070312 -4.523438 4.605469 -3.351562 5.535156 -3.351562 C 6.253906 -3.351562 6.757812 -4.125 6.890625 -5.480469 Z M 6.890625 -5.480469 "/></g></g></g><g fill="#877eff" fill-opacity="1"><g transform="translate(296.385473, 317.414173)"><g><path d="M 4.3125 -13.304688 L 0.746094 -13.304688 L 0.746094 0 L 4.3125 0 Z M 4.3125 -13.304688 "/></g></g></g><g fill="#877eff" fill-opacity="1"><g transform="translate(301.440187, 317.414173)"><g><path d="M 10.03125 -5.324219 C 10.03125 -8.835938 8.328125 -10.832031 5.296875 -10.832031 C 2.261719 -10.832031 0.558594 -8.835938 0.558594 -5.324219 C 0.558594 -1.808594 2.261719 0.1875 5.296875 0.1875 C 7.476562 0.1875 9.046875 -0.984375 9.714844 -3.058594 L 6.28125 -3.726562 C 6.148438 -3.21875 5.800781 -2.953125 5.347656 -2.953125 C 4.789062 -2.953125 4.390625 -3.351562 4.179688 -4.097656 L 9.898438 -4.097656 C 9.980469 -4.496094 10.03125 -4.921875 10.03125 -5.324219 Z M 6.414062 -6.332031 L 4.097656 -6.332031 C 4.257812 -7.210938 4.65625 -7.691406 5.296875 -7.691406 C 5.75 -7.691406 6.148438 -7.210938 6.414062 -6.332031 Z M 6.414062 -6.332031 "/></g></g></g><g fill="#877eff" fill-opacity="1"><g transform="translate(312.028509, 317.414173)"><g><path d="M 10.03125 -10.644531 L 6.492188 -10.644531 L 6.492188 -9.046875 C 5.988281 -10.21875 5.214844 -10.832031 4.257812 -10.832031 C 1.890625 -10.832031 0.558594 -8.835938 0.558594 -5.324219 C 0.558594 -1.808594 1.890625 0.1875 4.257812 0.1875 C 5.214844 0.1875 5.988281 -0.425781 6.492188 -1.597656 L 6.492188 0 L 10.03125 0 Z M 5.296875 -3.140625 C 4.472656 -3.140625 4.019531 -3.9375 4.019531 -5.324219 C 4.019531 -6.707031 4.472656 -7.503906 5.296875 -7.503906 C 6.066406 -7.503906 6.492188 -6.707031 6.492188 -5.324219 C 6.492188 -3.9375 6.066406 -3.140625 5.296875 -3.140625 Z M 5.296875 -3.140625 "/></g></g></g><g fill="#877eff" fill-opacity="1"><g transform="translate(322.803048, 317.414173)"><g><path d="M 6.867188 -10.832031 C 5.695312 -10.804688 4.816406 -10.191406 4.285156 -9.023438 L 4.285156 -10.644531 L 0.746094 -10.644531 L 0.746094 0 L 4.285156 0 L 4.285156 -5.507812 C 4.496094 -6.734375 4.949219 -7.398438 5.5625 -7.398438 C 6.28125 -7.398438 6.679688 -6.464844 6.679688 -4.816406 L 6.679688 0 L 10.21875 0 L 10.21875 -6.175781 C 10.21875 -9.15625 9.023438 -10.832031 6.867188 -10.832031 Z M 6.867188 -10.832031 "/></g></g></g><g fill="#877eff" fill-opacity="1"><g transform="translate(333.657403, 317.414173)"><g><path d="M 2.527344 -11.335938 C 3.671875 -11.335938 4.3125 -11.949219 4.3125 -13.011719 C 4.3125 -14.050781 3.671875 -14.664062 2.527344 -14.664062 C 1.410156 -14.664062 0.746094 -14.050781 0.746094 -13.011719 C 0.746094 -11.949219 1.410156 -11.335938 2.527344 -11.335938 Z M 4.3125 -10.644531 L 0.746094 -10.644531 L 0.746094 0 L 4.3125 0 Z M 4.3125 -10.644531 "/></g></g></g><g fill="#877eff" fill-opacity="1"><g transform="translate(338.712145, 317.414173)"><g><path d="M 6.867188 -10.832031 C 5.695312 -10.804688 4.816406 -10.191406 4.285156 -9.023438 L 4.285156 -10.644531 L 0.746094 -10.644531 L 0.746094 0 L 4.285156 0 L 4.285156 -5.507812 C 4.496094 -6.734375 4.949219 -7.398438 5.5625 -7.398438 C 6.28125 -7.398438 6.679688 -6.464844 6.679688 -4.816406 L 6.679688 0 L 10.21875 0 L 10.21875 -6.175781 C 10.21875 -9.15625 9.023438 -10.832031 6.867188 -10.832031 Z M 6.867188 -10.832031 "/></g></g></g><g fill="#877eff" fill-opacity="1"><g transform="translate(349.5665, 317.414173)"><g><path d="M 10.03125 -10.644531 L 6.492188 -10.644531 L 6.492188 -9.046875 C 5.988281 -10.21875 5.242188 -10.832031 4.257812 -10.832031 C 1.890625 -10.832031 0.558594 -8.835938 0.558594 -5.324219 C 0.558594 -1.808594 1.890625 0.1875 4.257812 0.1875 C 5.242188 0.1875 5.988281 -0.425781 6.492188 -1.597656 L 6.492188 -0.160156 C 6.492188 0.773438 6.066406 1.304688 5.296875 1.304688 C 4.363281 1.304688 3.832031 0.929688 3.777344 0.292969 L 0.640625 0.53125 C 0.773438 2.902344 2.527344 4.257812 5.535156 4.257812 C 8.410156 4.257812 10.03125 2.660156 10.03125 -0.160156 Z M 5.296875 -3.140625 C 4.472656 -3.140625 4.019531 -3.9375 4.019531 -5.324219 C 4.019531 -6.707031 4.472656 -7.503906 5.296875 -7.503906 C 6.066406 -7.503906 6.492188 -6.707031 6.492188 -5.324219 C 6.492188 -3.9375 6.066406 -3.140625 5.296875 -3.140625 Z M 5.296875 -3.140625 "/></g></g></g><g fill="#877eff" fill-opacity="1"><g transform="translate(53.348073, 293.121581)"><g><path d="M 16.355469 -26.085938 L 2.457031 -22.769531 C 2.457031 -7.695312 9.40625 0.75 21.488281 0.75 C 33.675781 0.75 40.515625 -7.695312 40.515625 -22.769531 L 40.515625 -53.453125 L 26.300781 -53.453125 L 26.300781 -22.769531 C 26.300781 -16.785156 24.589844 -13.46875 21.59375 -13.46875 C 18.28125 -13.46875 16.355469 -16.785156 16.355469 -22.769531 Z M 16.355469 -26.085938 "/></g></g></g><g fill="#877eff" fill-opacity="1"><g transform="translate(96.955308, 293.121581)"><g><path d="M 21.273438 0.75 C 33.460938 0.75 40.304688 -7.269531 40.304688 -21.382812 C 40.304688 -35.492188 33.460938 -43.511719 21.273438 -43.511719 C 9.085938 -43.511719 2.246094 -35.492188 2.246094 -21.382812 C 2.246094 -7.269531 9.085938 0.75 21.273438 0.75 Z M 21.273438 -12.613281 C 17.960938 -12.613281 16.144531 -15.820312 16.144531 -21.382812 C 16.144531 -26.941406 17.960938 -30.148438 21.273438 -30.148438 C 24.589844 -30.148438 26.40625 -26.941406 26.40625 -21.382812 C 26.40625 -15.820312 24.589844 -12.613281 21.273438 -12.613281 Z M 21.273438 -12.613281 "/></g></g></g><g fill="#877eff" fill-opacity="1"><g transform="translate(139.493722, 293.121581)"><g><path d="M 27.261719 -43.511719 C 22.664062 -43.402344 19.242188 -40.945312 17.210938 -36.347656 L 17.210938 -42.761719 L 2.992188 -42.761719 L 2.992188 0 L 17.210938 0 L 17.210938 -17.746094 C 17.960938 -25.445312 19.671875 -29.71875 22.128906 -29.71875 C 24.589844 -29.71875 26.832031 -28.4375 28.542969 -25.976562 L 38.058594 -35.921875 C 35.8125 -41.050781 31.75 -43.511719 27.261719 -43.511719 Z M 27.261719 -43.511719 "/></g></g></g><g fill="#877eff" fill-opacity="1"><g transform="translate(178.505098, 293.121581)"><g><path d="M 40.304688 -53.453125 L 26.085938 -53.453125 L 26.085938 -36.347656 C 24.054688 -41.050781 20.953125 -43.511719 17.105469 -43.511719 C 7.589844 -43.511719 2.246094 -35.492188 2.246094 -21.382812 C 2.246094 -7.269531 7.589844 0.75 17.105469 0.75 C 20.953125 0.75 24.054688 -1.710938 26.085938 -6.414062 L 26.085938 0 L 40.304688 0 Z M 21.273438 -12.613281 C 17.960938 -12.613281 16.144531 -15.820312 16.144531 -21.382812 C 16.144531 -26.941406 17.960938 -30.148438 21.273438 -30.148438 C 24.375 -30.148438 26.085938 -26.941406 26.085938 -21.382812 C 26.085938 -15.820312 24.375 -12.613281 21.273438 -12.613281 Z M 21.273438 -12.613281 "/></g></g></g><g fill="#877eff" fill-opacity="1"><g transform="translate(221.791684, 293.121581)"><g><path d="M 9.835938 10.691406 L 22.769531 10.691406 L 41.800781 -42.761719 L 28.007812 -42.761719 L 21.914062 -26.191406 L 14.96875 -42.761719 L 0.75 -42.761719 L 15.179688 -5.238281 Z M 9.835938 10.691406 "/></g></g></g><g fill="#877eff" fill-opacity="1"><g transform="translate(263.902575, 293.121581)"><g><path d="M 13.789062 -53.453125 L 2.671875 -53.453125 L 2.671875 -42.226562 L 5.773438 -42.226562 L 2.457031 -34.53125 L 9.515625 -34.53125 L 13.789062 -42.226562 Z M 13.789062 -53.453125 "/></g></g></g><g fill="#877eff" fill-opacity="1"><g transform="translate(280.148412, 293.121581)"><g><path d="M 10.691406 -15.714844 C 13.683594 -12.9375 17.425781 -11.546875 20.738281 -11.546875 C 24.910156 -11.546875 27.261719 -12.402344 27.261719 -13.789062 C 27.261719 -18.601562 1.605469 -10.582031 1.605469 -29.613281 C 1.605469 -38.484375 8.230469 -43.511719 19.992188 -43.511719 C 27.152344 -43.511719 33.890625 -40.515625 38.378906 -35.492188 L 30.789062 -27.152344 C 27.6875 -29.828125 24.054688 -31.324219 20.738281 -31.324219 C 16.464844 -31.324219 14.113281 -30.46875 14.113281 -28.972656 C 14.113281 -24.800781 39.769531 -32.179688 39.769531 -13.148438 C 39.769531 -4.277344 33.140625 0.75 21.382812 0.640625 C 14.96875 0.75 8.339844 -2.246094 2.992188 -7.269531 Z M 10.691406 -15.714844 "/></g></g></g></svg>