<svg xmlns="http://www.w3.org/2000/svg" xmlns:xlink="http://www.w3.org/1999/xlink" width="500" zoomAndPan="magnify" viewBox="0 0 375 374.999991" height="500" preserveAspectRatio="xMidYMid meet" version="1.0"><defs><g/><clipPath id="0e7ea99fa7"><path d="M 0 28.703125 L 375 28.703125 L 375 324 L 0 324 Z M 0 28.703125 " clip-rule="nonzero"/></clipPath></defs><g clip-path="url(#0e7ea99fa7)"><path fill="#f5bfc7" d="M 53.175781 274.265625 L 49.199219 275.089844 L 49.199219 273.363281 Z M 86.550781 323.839844 L 89.101562 323.839844 L 89.101562 323.765625 C 88.199219 323.765625 87.375 323.839844 86.550781 323.839844 Z M 212.398438 274.714844 C 204.675781 288.289062 199.125 316.113281 225.675781 313.039062 Z M 255.898438 267.8125 L 257.925781 258.4375 L 267.300781 256.414062 L 257.925781 254.390625 L 255.898438 245.015625 L 253.875 254.390625 L 244.5 256.414062 L 253.875 258.4375 Z M 291.148438 238.039062 L 291.148438 239.839844 C 291.449219 239.539062 291.75 239.238281 292.125 238.9375 C 291.75 238.640625 291.449219 238.339844 291.148438 238.039062 Z M 49.199219 273.4375 L 49.199219 275.164062 L 53.175781 274.339844 Z M 53.175781 274.265625 L 49.199219 275.089844 L 49.199219 273.363281 Z M 375 274.640625 C 375 301.789062 353.023438 323.839844 325.800781 323.839844 L 291.074219 323.839844 L 291.074219 239.839844 C 291.375 239.539062 291.675781 239.238281 292.050781 238.9375 C 291.75 238.640625 291.449219 238.339844 291.074219 238.039062 L 291.074219 203.914062 C 291.074219 200.765625 293.625 198.289062 296.699219 198.289062 L 301.648438 198.289062 C 306.898438 198.289062 309.300781 191.6875 305.25 188.3125 L 302.476562 185.988281 L 273.300781 161.464844 L 253.050781 144.4375 L 224.023438 120.0625 L 209.625 107.988281 L 193.648438 94.5625 C 191.550781 92.839844 188.476562 92.839844 186.375 94.5625 L 176.398438 102.964844 L 164.476562 113.015625 L 133.800781 138.8125 L 121.875 148.863281 L 89.101562 176.464844 L 74.851562 188.464844 C 70.800781 191.839844 73.199219 198.4375 78.449219 198.4375 L 83.398438 198.4375 C 85.574219 198.4375 87.449219 199.640625 88.351562 201.4375 C 88.726562 202.265625 89.023438 203.089844 89.023438 204.0625 L 89.023438 323.839844 C 88.199219 323.839844 87.300781 323.914062 86.476562 323.914062 L 49.199219 323.914062 C 22.050781 323.839844 0 301.789062 0 274.640625 C 0 251.539062 15.898438 232.1875 37.425781 226.863281 C 37.425781 226.414062 37.425781 225.890625 37.425781 225.4375 C 37.425781 210.890625 43.726562 197.839844 53.851562 188.765625 C 43.800781 179.765625 37.5 166.714844 37.5 152.164062 C 37.5 125.015625 59.476562 103.039062 86.625 103.039062 C 90.976562 103.039062 95.175781 103.5625 99.226562 104.6875 C 102.75 86.539062 118.800781 72.964844 138 72.964844 C 142.125 72.964844 146.101562 73.5625 149.851562 74.765625 C 151.5 49.039062 172.800781 28.714844 198.898438 28.714844 C 226.050781 28.714844 248.023438 50.6875 248.023438 77.839844 C 248.023438 80.015625 247.875 82.113281 247.648438 84.140625 L 248.023438 84.140625 C 264.523438 84.140625 278.925781 93.515625 286.050781 107.238281 C 292.648438 104.539062 299.851562 103.039062 307.351562 103.039062 C 338.398438 103.039062 363.601562 128.238281 363.601562 159.289062 C 363.601562 177.363281 355.050781 193.488281 341.773438 203.765625 C 343.273438 207.363281 344.101562 211.414062 344.101562 215.539062 C 344.101562 219.964844 343.199219 224.164062 341.476562 227.988281 C 360.976562 234.589844 375 252.964844 375 274.640625 Z M 53.175781 274.265625 L 49.199219 273.4375 L 39.898438 271.414062 L 38.398438 264.589844 L 36.976562 258.0625 L 34.125 271.414062 L 20.773438 274.265625 L 34.125 277.113281 L 36.976562 290.464844 L 38.324219 284.3125 L 39.898438 277.113281 L 49.199219 275.089844 Z M 98.925781 136.488281 L 79.273438 132.289062 L 75.074219 112.640625 L 70.875 132.289062 L 51.148438 136.488281 L 70.875 140.6875 L 75.074219 160.414062 L 79.273438 140.6875 Z M 329.25 164.390625 L 320.925781 166.1875 L 329.25 167.988281 L 331.050781 176.3125 L 332.851562 167.988281 L 341.175781 166.1875 L 332.851562 164.390625 L 331.050781 156.0625 Z M 311.175781 140.3125 L 328.949219 136.488281 L 311.175781 132.664062 L 307.351562 114.890625 L 303.523438 132.664062 L 289.949219 135.589844 L 285.675781 136.488281 L 289.5 137.3125 L 303.449219 140.3125 L 307.273438 158.089844 Z M 363.074219 273.738281 L 344.175781 269.6875 L 340.125 250.789062 L 336.074219 269.6875 L 325.800781 271.863281 L 317.175781 273.738281 L 325.800781 275.613281 L 336.074219 277.789062 L 340.125 296.6875 L 344.175781 277.789062 Z M 135.675781 195.664062 L 137.699219 186.289062 L 147.074219 184.265625 L 137.699219 182.238281 L 135.675781 172.863281 L 133.648438 182.238281 L 124.273438 184.265625 L 133.648438 186.289062 Z M 239.175781 221.3125 L 242.101562 207.589844 L 255.824219 204.664062 L 242.101562 201.738281 L 239.175781 188.015625 L 236.25 201.738281 L 222.523438 204.664062 L 236.25 207.589844 Z M 253.875 254.390625 L 244.5 256.414062 L 253.875 258.4375 L 255.898438 267.8125 L 257.925781 258.4375 L 267.300781 256.414062 L 257.925781 254.390625 L 255.898438 245.015625 Z M 49.199219 273.4375 L 49.199219 275.164062 L 53.175781 274.339844 Z M 290.851562 30.515625 L 287.925781 44.238281 L 274.199219 47.164062 L 287.925781 50.089844 L 290.851562 63.8125 L 293.773438 50.089844 L 307.5 47.164062 L 293.773438 44.238281 Z M 83.625 62.089844 L 81.75 71.015625 L 72.824219 72.964844 L 81.75 74.839844 L 83.625 83.765625 L 85.5 74.839844 L 94.425781 72.964844 L 85.5 71.089844 Z M 223.425781 323.839844 L 269.324219 323.839844 C 264.148438 316.789062 255.824219 312.214844 246.375 312.214844 C 242.851562 312.214844 239.398438 312.890625 236.25 314.089844 L 219 263.464844 L 207.300781 258.589844 C 207.449219 258.515625 190.800781 247.039062 187.5 240.0625 C 184.351562 233.613281 182.851562 221.3125 182.101562 214.789062 C 183.300781 215.089844 184.5 215.238281 185.773438 215.238281 C 193.800781 215.238281 200.324219 208.714844 200.324219 200.6875 C 200.324219 192.664062 193.800781 186.140625 185.773438 186.140625 C 177.75 186.140625 171.226562 192.664062 171.226562 200.6875 C 171.226562 203.3125 171.898438 205.789062 173.175781 207.890625 C 164.476562 209.464844 156.074219 217.488281 148.351562 228.664062 C 142.648438 236.914062 137.324219 246.890625 132.523438 257.238281 C 121.574219 280.863281 113.476562 306.4375 110.101562 317.6875 C 108.976562 321.4375 108.375 323.613281 108.375 323.613281 L 123.449219 323.613281 L 146.398438 284.390625 L 142.199219 264.8125 C 146.023438 275.539062 180 323.613281 180 323.613281 L 198.375 323.613281 C 198.375 323.613281 171.449219 272.613281 169.800781 249.738281 C 167.773438 246.589844 165.675781 241.714844 165.074219 236.238281 C 165.675781 238.5625 167.324219 242.015625 169.875 245.390625 C 169.875 245.390625 183.976562 258.515625 198.675781 259.488281 L 215.550781 266.539062 L 232.351562 315.738281 C 228.898438 317.839844 225.824219 320.539062 223.425781 323.839844 Z M 223.425781 323.839844 " fill-opacity="1" fill-rule="nonzero"/></g><g fill="#9f9f9a" fill-opacity="1"><g transform="translate(47.497053, 342.776996)"><g><path d="M 3.144531 -10.769531 L 4.976562 -4.628906 L 6.847656 -10.769531 L 9.800781 -10.769531 L 6.375 0 L 3.574219 0 L 0.195312 -10.769531 Z M 3.144531 -10.769531 "/></g></g></g><g fill="#9f9f9a" fill-opacity="1"><g transform="translate(57.490695, 342.776996)"><g><path d="M 8.121094 -8.617188 L 5.253906 -8.617188 L 5.253906 -7.324219 C 4.847656 -8.269531 4.222656 -8.765625 3.445312 -8.765625 C 1.527344 -8.765625 0.453125 -7.152344 0.453125 -4.308594 C 0.453125 -1.464844 1.527344 0.152344 3.445312 0.152344 C 4.222656 0.152344 4.847656 -0.34375 5.253906 -1.292969 L 5.253906 0 L 8.121094 0 Z M 4.285156 -2.542969 C 3.617188 -2.542969 3.253906 -3.1875 3.253906 -4.308594 C 3.253906 -5.425781 3.617188 -6.074219 4.285156 -6.074219 C 4.910156 -6.074219 5.253906 -5.425781 5.253906 -4.308594 C 5.253906 -3.1875 4.910156 -2.542969 4.285156 -2.542969 Z M 4.285156 -2.542969 "/></g></g></g><g fill="#9f9f9a" fill-opacity="1"><g transform="translate(66.213589, 342.776996)"><g><path d="M 8.078125 -3.1875 C 7.773438 -1.054688 6.398438 0.152344 4.285156 0.152344 C 1.832031 0.152344 0.453125 -1.464844 0.453125 -4.308594 C 0.453125 -7.152344 1.832031 -8.765625 4.285156 -8.765625 C 6.417969 -8.765625 7.796875 -7.558594 8.078125 -5.425781 L 5.382812 -4.933594 C 5.277344 -5.644531 4.867188 -6.074219 4.285156 -6.074219 C 3.617188 -6.074219 3.253906 -5.425781 3.253906 -4.308594 C 3.253906 -3.1875 3.617188 -2.542969 4.285156 -2.542969 C 4.867188 -2.542969 5.277344 -2.972656 5.382812 -3.683594 Z M 8.078125 -3.1875 "/></g></g></g><g fill="#9f9f9a" fill-opacity="1"><g transform="translate(74.721097, 342.776996)"><g><path d="M 8.121094 -8.617188 L 5.253906 -8.617188 L 5.253906 -7.324219 C 4.847656 -8.269531 4.222656 -8.765625 3.445312 -8.765625 C 1.527344 -8.765625 0.453125 -7.152344 0.453125 -4.308594 C 0.453125 -1.464844 1.527344 0.152344 3.445312 0.152344 C 4.222656 0.152344 4.847656 -0.34375 5.253906 -1.292969 L 5.253906 0 L 8.121094 0 Z M 4.285156 -2.542969 C 3.617188 -2.542969 3.253906 -3.1875 3.253906 -4.308594 C 3.253906 -5.425781 3.617188 -6.074219 4.285156 -6.074219 C 4.910156 -6.074219 5.253906 -5.425781 5.253906 -4.308594 C 5.253906 -3.1875 4.910156 -2.542969 4.285156 -2.542969 Z M 4.285156 -2.542969 "/></g></g></g><g fill="#9f9f9a" fill-opacity="1"><g transform="translate(83.443991, 342.776996)"><g><path d="M 7.367188 -2.261719 C 7.214844 -0.710938 5.988281 0.152344 3.898438 0.152344 C 1.789062 0.152344 0.601562 -1.121094 0.601562 -3.402344 L 0.601562 -10.359375 L 3.46875 -10.359375 L 3.46875 -7.925781 L 5.039062 -7.925781 L 5.039062 -5.40625 L 3.46875 -5.40625 L 3.46875 -4.113281 C 3.46875 -3.121094 3.8125 -2.5625 4.4375 -2.5625 C 4.933594 -2.5625 5.253906 -2.863281 5.277344 -3.402344 Z M 7.367188 -2.261719 "/></g></g></g><g fill="#9f9f9a" fill-opacity="1"><g transform="translate(91.089974, 342.776996)"><g><path d="M 2.046875 -9.175781 C 2.972656 -9.175781 3.488281 -9.671875 3.488281 -10.53125 C 3.488281 -11.371094 2.972656 -11.867188 2.046875 -11.867188 C 1.140625 -11.867188 0.601562 -11.371094 0.601562 -10.53125 C 0.601562 -9.671875 1.140625 -9.175781 2.046875 -9.175781 Z M 3.488281 -8.617188 L 0.601562 -8.617188 L 0.601562 0 L 3.488281 0 Z M 3.488281 -8.617188 "/></g></g></g><g fill="#9f9f9a" fill-opacity="1"><g transform="translate(95.182193, 342.776996)"><g><path d="M 4.285156 0.152344 C 6.742188 0.152344 8.121094 -1.464844 8.121094 -4.308594 C 8.121094 -7.152344 6.742188 -8.765625 4.285156 -8.765625 C 1.832031 -8.765625 0.453125 -7.152344 0.453125 -4.308594 C 0.453125 -1.464844 1.832031 0.152344 4.285156 0.152344 Z M 4.285156 -2.542969 C 3.617188 -2.542969 3.253906 -3.1875 3.253906 -4.308594 C 3.253906 -5.425781 3.617188 -6.074219 4.285156 -6.074219 C 4.953125 -6.074219 5.320312 -5.425781 5.320312 -4.308594 C 5.320312 -3.1875 4.953125 -2.542969 4.285156 -2.542969 Z M 4.285156 -2.542969 "/></g></g></g><g fill="#9f9f9a" fill-opacity="1"><g transform="translate(103.754326, 342.776996)"><g><path d="M 5.558594 -8.765625 C 4.609375 -8.746094 3.898438 -8.25 3.46875 -7.300781 L 3.46875 -8.617188 L 0.601562 -8.617188 L 0.601562 0 L 3.46875 0 L 3.46875 -4.457031 C 3.640625 -5.449219 4.007812 -5.988281 4.5 -5.988281 C 5.082031 -5.988281 5.40625 -5.234375 5.40625 -3.898438 L 5.40625 0 L 8.269531 0 L 8.269531 -4.996094 C 8.269531 -7.410156 7.300781 -8.765625 5.558594 -8.765625 Z M 5.558594 -8.765625 "/></g></g></g><g fill="#9f9f9a" fill-opacity="1"><g transform="translate(112.541826, 342.776996)"><g/></g></g><g fill="#9f9f9a" fill-opacity="1"><g transform="translate(115.104853, 342.776996)"><g><path d="M 7.195312 -4.652344 C 7.90625 -5.210938 8.269531 -6.117188 8.269531 -7.324219 C 8.269531 -9.519531 7.085938 -10.769531 4.996094 -10.769531 L 0.601562 -10.769531 L 0.601562 0 L 3.46875 0 L 3.46875 -3.855469 L 4.4375 -3.855469 C 5.191406 -3.640625 5.601562 -3.035156 5.601562 -2.109375 L 5.601562 0 L 8.226562 0 L 8.226562 -1.765625 C 8.226562 -3.058594 7.863281 -4.027344 7.195312 -4.652344 Z M 4.761719 -6.375 L 3.46875 -6.375 L 3.46875 -8.164062 L 4.761719 -8.164062 C 5.363281 -8.164062 5.730469 -7.839844 5.730469 -7.257812 C 5.730469 -6.699219 5.363281 -6.375 4.761719 -6.375 Z M 4.761719 -6.375 "/></g></g></g><g fill="#9f9f9a" fill-opacity="1"><g transform="translate(123.892353, 342.776996)"><g><path d="M 8.121094 -4.308594 C 8.121094 -7.152344 6.742188 -8.765625 4.285156 -8.765625 C 1.832031 -8.765625 0.453125 -7.152344 0.453125 -4.308594 C 0.453125 -1.464844 1.832031 0.152344 4.285156 0.152344 C 6.050781 0.152344 7.324219 -0.796875 7.863281 -2.476562 L 5.082031 -3.015625 C 4.976562 -2.605469 4.695312 -2.390625 4.328125 -2.390625 C 3.875 -2.390625 3.554688 -2.714844 3.382812 -3.316406 L 8.011719 -3.316406 C 8.078125 -3.640625 8.121094 -3.984375 8.121094 -4.308594 Z M 5.191406 -5.125 L 3.316406 -5.125 C 3.445312 -5.835938 3.769531 -6.222656 4.285156 -6.222656 C 4.652344 -6.222656 4.976562 -5.835938 5.191406 -5.125 Z M 5.191406 -5.125 "/></g></g></g><g fill="#9f9f9a" fill-opacity="1"><g transform="translate(132.464486, 342.776996)"><g><path d="M 5.558594 -8.765625 C 4.609375 -8.746094 3.898438 -8.25 3.46875 -7.300781 L 3.46875 -8.617188 L 0.601562 -8.617188 L 0.601562 0 L 3.46875 0 L 3.46875 -4.457031 C 3.640625 -5.449219 4.007812 -5.988281 4.5 -5.988281 C 5.082031 -5.988281 5.40625 -5.234375 5.40625 -3.898438 L 5.40625 0 L 8.269531 0 L 8.269531 -4.996094 C 8.269531 -7.410156 7.300781 -8.765625 5.558594 -8.765625 Z M 5.558594 -8.765625 "/></g></g></g><g fill="#9f9f9a" fill-opacity="1"><g transform="translate(141.251986, 342.776996)"><g><path d="M 7.367188 -2.261719 C 7.214844 -0.710938 5.988281 0.152344 3.898438 0.152344 C 1.789062 0.152344 0.601562 -1.121094 0.601562 -3.402344 L 0.601562 -10.359375 L 3.46875 -10.359375 L 3.46875 -7.925781 L 5.039062 -7.925781 L 5.039062 -5.40625 L 3.46875 -5.40625 L 3.46875 -4.113281 C 3.46875 -3.121094 3.8125 -2.5625 4.4375 -2.5625 C 4.933594 -2.5625 5.253906 -2.863281 5.277344 -3.402344 Z M 7.367188 -2.261719 "/></g></g></g><g fill="#9f9f9a" fill-opacity="1"><g transform="translate(148.897969, 342.776996)"><g><path d="M 8.121094 -8.617188 L 5.253906 -8.617188 L 5.253906 -7.324219 C 4.847656 -8.269531 4.222656 -8.765625 3.445312 -8.765625 C 1.527344 -8.765625 0.453125 -7.152344 0.453125 -4.308594 C 0.453125 -1.464844 1.527344 0.152344 3.445312 0.152344 C 4.222656 0.152344 4.847656 -0.34375 5.253906 -1.292969 L 5.253906 0 L 8.121094 0 Z M 4.285156 -2.542969 C 3.617188 -2.542969 3.253906 -3.1875 3.253906 -4.308594 C 3.253906 -5.425781 3.617188 -6.074219 4.285156 -6.074219 C 4.910156 -6.074219 5.253906 -5.425781 5.253906 -4.308594 C 5.253906 -3.1875 4.910156 -2.542969 4.285156 -2.542969 Z M 4.285156 -2.542969 "/></g></g></g><g fill="#9f9f9a" fill-opacity="1"><g transform="translate(157.620863, 342.776996)"><g><path d="M 3.488281 -10.769531 L 0.601562 -10.769531 L 0.601562 0 L 3.488281 0 Z M 3.488281 -10.769531 "/></g></g></g><g fill="#9f9f9a" fill-opacity="1"><g transform="translate(161.713082, 342.776996)"><g/></g></g><g fill="#9f9f9a" fill-opacity="1"><g transform="translate(164.276108, 342.776996)"><g><path d="M 7.96875 0 L 10.855469 0 C 10.574219 -0.753906 10.015625 -1.484375 9.347656 -2.175781 C 9.800781 -3.015625 10.058594 -4.050781 10.058594 -5.296875 L 7.257812 -5.296875 C 7.257812 -4.890625 7.195312 -4.542969 7.085938 -4.242188 L 6.289062 -5.082031 C 7.257812 -5.664062 8.097656 -6.503906 8.097656 -7.882812 C 8.097656 -9.84375 7.019531 -10.941406 5.082031 -10.941406 C 2.949219 -10.941406 1.746094 -9.949219 1.746094 -7.796875 C 1.746094 -7.109375 2.003906 -6.398438 2.347656 -5.707031 C 1.335938 -5.148438 0.386719 -4.480469 0.386719 -3.035156 C 0.386719 -0.992188 2.003906 0.128906 4.867188 0.128906 C 5.988281 0.128906 6.933594 -0.0859375 7.6875 -0.515625 C 7.816406 -0.34375 7.90625 -0.171875 7.96875 0 Z M 4.542969 -7.582031 C 4.542969 -8.054688 4.78125 -8.3125 4.996094 -8.3125 C 5.191406 -8.3125 5.296875 -8.078125 5.296875 -7.667969 C 5.296875 -7.300781 5.0625 -7.019531 4.695312 -6.761719 C 4.609375 -7.066406 4.542969 -7.324219 4.542969 -7.582031 Z M 4.867188 -2.476562 C 3.789062 -2.476562 3.1875 -2.886719 3.1875 -3.382812 C 3.1875 -3.660156 3.46875 -3.875 3.898438 -4.09375 C 4.351562 -3.597656 4.847656 -3.144531 5.296875 -2.648438 C 5.234375 -2.542969 5.039062 -2.476562 4.867188 -2.476562 Z M 4.867188 -2.476562 "/></g></g></g><g fill="#9f9f9a" fill-opacity="1"><g transform="translate(175.325094, 342.776996)"><g/></g></g><g fill="#9f9f9a" fill-opacity="1"><g transform="translate(177.888121, 342.776996)"><g><path d="M 5.578125 -4.4375 L 8.335938 -3.941406 C 7.882812 -1.3125 6.503906 0.152344 4.480469 0.152344 C 1.917969 0.152344 0.496094 -1.851562 0.496094 -5.382812 C 0.496094 -8.917969 1.917969 -10.917969 4.480469 -10.917969 C 6.503906 -10.917969 7.90625 -9.457031 8.335938 -6.847656 L 5.578125 -6.332031 C 5.425781 -7.453125 5.039062 -8.054688 4.480469 -8.054688 C 3.726562 -8.054688 3.296875 -7.109375 3.296875 -5.382812 C 3.296875 -3.660156 3.726562 -2.714844 4.480469 -2.714844 C 5.0625 -2.714844 5.46875 -3.339844 5.578125 -4.4375 Z M 5.578125 -4.4375 "/></g></g></g><g fill="#9f9f9a" fill-opacity="1"><g transform="translate(186.718698, 342.776996)"><g><path d="M 4.285156 0.152344 C 6.742188 0.152344 8.121094 -1.464844 8.121094 -4.308594 C 8.121094 -7.152344 6.742188 -8.765625 4.285156 -8.765625 C 1.832031 -8.765625 0.453125 -7.152344 0.453125 -4.308594 C 0.453125 -1.464844 1.832031 0.152344 4.285156 0.152344 Z M 4.285156 -2.542969 C 3.617188 -2.542969 3.253906 -3.1875 3.253906 -4.308594 C 3.253906 -5.425781 3.617188 -6.074219 4.285156 -6.074219 C 4.953125 -6.074219 5.320312 -5.425781 5.320312 -4.308594 C 5.320312 -3.1875 4.953125 -2.542969 4.285156 -2.542969 Z M 4.285156 -2.542969 "/></g></g></g><g fill="#9f9f9a" fill-opacity="1"><g transform="translate(195.290831, 342.776996)"><g><path d="M 10.316406 -8.765625 C 9.195312 -8.746094 8.441406 -8.054688 8.054688 -6.804688 C 7.667969 -8.078125 6.804688 -8.765625 5.558594 -8.765625 C 4.609375 -8.746094 3.898438 -8.25 3.46875 -7.300781 L 3.46875 -8.617188 L 0.601562 -8.617188 L 0.601562 0 L 3.46875 0 L 3.46875 -4.457031 C 3.640625 -5.449219 4.007812 -5.988281 4.5 -5.988281 C 5.082031 -5.988281 5.40625 -5.234375 5.40625 -3.898438 L 5.40625 0 L 8.269531 0 L 8.269531 -4.585938 C 8.464844 -5.492188 8.808594 -5.988281 9.261719 -5.988281 C 9.84375 -5.988281 10.164062 -5.234375 10.164062 -3.898438 L 10.164062 0 L 13.03125 0 L 13.03125 -4.996094 C 13.03125 -7.410156 12.0625 -8.765625 10.316406 -8.765625 Z M 10.316406 -8.765625 "/></g></g></g><g fill="#9f9f9a" fill-opacity="1"><g transform="translate(208.816689, 342.776996)"><g><path d="M 10.316406 -8.765625 C 9.195312 -8.746094 8.441406 -8.054688 8.054688 -6.804688 C 7.667969 -8.078125 6.804688 -8.765625 5.558594 -8.765625 C 4.609375 -8.746094 3.898438 -8.25 3.46875 -7.300781 L 3.46875 -8.617188 L 0.601562 -8.617188 L 0.601562 0 L 3.46875 0 L 3.46875 -4.457031 C 3.640625 -5.449219 4.007812 -5.988281 4.5 -5.988281 C 5.082031 -5.988281 5.40625 -5.234375 5.40625 -3.898438 L 5.40625 0 L 8.269531 0 L 8.269531 -4.585938 C 8.464844 -5.492188 8.808594 -5.988281 9.261719 -5.988281 C 9.84375 -5.988281 10.164062 -5.234375 10.164062 -3.898438 L 10.164062 0 L 13.03125 0 L 13.03125 -4.996094 C 13.03125 -7.410156 12.0625 -8.765625 10.316406 -8.765625 Z M 10.316406 -8.765625 "/></g></g></g><g fill="#9f9f9a" fill-opacity="1"><g transform="translate(222.342548, 342.776996)"><g><path d="M 8.121094 -4.308594 C 8.121094 -7.152344 6.742188 -8.765625 4.285156 -8.765625 C 1.832031 -8.765625 0.453125 -7.152344 0.453125 -4.308594 C 0.453125 -1.464844 1.832031 0.152344 4.285156 0.152344 C 6.050781 0.152344 7.324219 -0.796875 7.863281 -2.476562 L 5.082031 -3.015625 C 4.976562 -2.605469 4.695312 -2.390625 4.328125 -2.390625 C 3.875 -2.390625 3.554688 -2.714844 3.382812 -3.316406 L 8.011719 -3.316406 C 8.078125 -3.640625 8.121094 -3.984375 8.121094 -4.308594 Z M 5.191406 -5.125 L 3.316406 -5.125 C 3.445312 -5.835938 3.769531 -6.222656 4.285156 -6.222656 C 4.652344 -6.222656 4.976562 -5.835938 5.191406 -5.125 Z M 5.191406 -5.125 "/></g></g></g><g fill="#9f9f9a" fill-opacity="1"><g transform="translate(230.914681, 342.776996)"><g><path d="M 5.492188 -8.765625 C 4.566406 -8.746094 3.875 -8.25 3.46875 -7.324219 L 3.46875 -8.617188 L 0.601562 -8.617188 L 0.601562 0 L 3.46875 0 L 3.46875 -3.574219 C 3.617188 -5.125 3.964844 -5.988281 4.457031 -5.988281 C 4.953125 -5.988281 5.40625 -5.730469 5.75 -5.234375 L 7.667969 -7.238281 C 7.214844 -8.269531 6.398438 -8.765625 5.492188 -8.765625 Z M 5.492188 -8.765625 "/></g></g></g><g fill="#9f9f9a" fill-opacity="1"><g transform="translate(238.77605, 342.776996)"><g><path d="M 8.078125 -3.1875 C 7.773438 -1.054688 6.398438 0.152344 4.285156 0.152344 C 1.832031 0.152344 0.453125 -1.464844 0.453125 -4.308594 C 0.453125 -7.152344 1.832031 -8.765625 4.285156 -8.765625 C 6.417969 -8.765625 7.796875 -7.558594 8.078125 -5.425781 L 5.382812 -4.933594 C 5.277344 -5.644531 4.867188 -6.074219 4.285156 -6.074219 C 3.617188 -6.074219 3.253906 -5.425781 3.253906 -4.308594 C 3.253906 -3.1875 3.617188 -2.542969 4.285156 -2.542969 C 4.867188 -2.542969 5.277344 -2.972656 5.382812 -3.683594 Z M 8.078125 -3.1875 "/></g></g></g><g fill="#9f9f9a" fill-opacity="1"><g transform="translate(247.283558, 342.776996)"><g><path d="M 2.046875 -9.175781 C 2.972656 -9.175781 3.488281 -9.671875 3.488281 -10.53125 C 3.488281 -11.371094 2.972656 -11.867188 2.046875 -11.867188 C 1.140625 -11.867188 0.601562 -11.371094 0.601562 -10.53125 C 0.601562 -9.671875 1.140625 -9.175781 2.046875 -9.175781 Z M 3.488281 -8.617188 L 0.601562 -8.617188 L 0.601562 0 L 3.488281 0 Z M 3.488281 -8.617188 "/></g></g></g><g fill="#9f9f9a" fill-opacity="1"><g transform="translate(251.375777, 342.776996)"><g><path d="M 8.121094 -8.617188 L 5.253906 -8.617188 L 5.253906 -7.324219 C 4.847656 -8.269531 4.222656 -8.765625 3.445312 -8.765625 C 1.527344 -8.765625 0.453125 -7.152344 0.453125 -4.308594 C 0.453125 -1.464844 1.527344 0.152344 3.445312 0.152344 C 4.222656 0.152344 4.847656 -0.34375 5.253906 -1.292969 L 5.253906 0 L 8.121094 0 Z M 4.285156 -2.542969 C 3.617188 -2.542969 3.253906 -3.1875 3.253906 -4.308594 C 3.253906 -5.425781 3.617188 -6.074219 4.285156 -6.074219 C 4.910156 -6.074219 5.253906 -5.425781 5.253906 -4.308594 C 5.253906 -3.1875 4.910156 -2.542969 4.285156 -2.542969 Z M 4.285156 -2.542969 "/></g></g></g><g fill="#9f9f9a" fill-opacity="1"><g transform="translate(260.098671, 342.776996)"><g><path d="M 3.488281 -10.769531 L 0.601562 -10.769531 L 0.601562 0 L 3.488281 0 Z M 3.488281 -10.769531 "/></g></g></g><g fill="#9f9f9a" fill-opacity="1"><g transform="translate(264.19089, 342.776996)"><g/></g></g><g fill="#9f9f9a" fill-opacity="1"><g transform="translate(266.753916, 342.776996)"><g><path d="M 5.578125 -4.4375 L 8.335938 -3.941406 C 7.882812 -1.3125 6.503906 0.152344 4.480469 0.152344 C 1.917969 0.152344 0.496094 -1.851562 0.496094 -5.382812 C 0.496094 -8.917969 1.917969 -10.917969 4.480469 -10.917969 C 6.503906 -10.917969 7.90625 -9.457031 8.335938 -6.847656 L 5.578125 -6.332031 C 5.425781 -7.453125 5.039062 -8.054688 4.480469 -8.054688 C 3.726562 -8.054688 3.296875 -7.109375 3.296875 -5.382812 C 3.296875 -3.660156 3.726562 -2.714844 4.480469 -2.714844 C 5.0625 -2.714844 5.46875 -3.339844 5.578125 -4.4375 Z M 5.578125 -4.4375 "/></g></g></g><g fill="#9f9f9a" fill-opacity="1"><g transform="translate(275.584494, 342.776996)"><g><path d="M 3.488281 -10.769531 L 0.601562 -10.769531 L 0.601562 0 L 3.488281 0 Z M 3.488281 -10.769531 "/></g></g></g><g fill="#9f9f9a" fill-opacity="1"><g transform="translate(279.676713, 342.776996)"><g><path d="M 8.121094 -4.308594 C 8.121094 -7.152344 6.742188 -8.765625 4.285156 -8.765625 C 1.832031 -8.765625 0.453125 -7.152344 0.453125 -4.308594 C 0.453125 -1.464844 1.832031 0.152344 4.285156 0.152344 C 6.050781 0.152344 7.324219 -0.796875 7.863281 -2.476562 L 5.082031 -3.015625 C 4.976562 -2.605469 4.695312 -2.390625 4.328125 -2.390625 C 3.875 -2.390625 3.554688 -2.714844 3.382812 -3.316406 L 8.011719 -3.316406 C 8.078125 -3.640625 8.121094 -3.984375 8.121094 -4.308594 Z M 5.191406 -5.125 L 3.316406 -5.125 C 3.445312 -5.835938 3.769531 -6.222656 4.285156 -6.222656 C 4.652344 -6.222656 4.976562 -5.835938 5.191406 -5.125 Z M 5.191406 -5.125 "/></g></g></g><g fill="#9f9f9a" fill-opacity="1"><g transform="translate(288.248846, 342.776996)"><g><path d="M 8.121094 -8.617188 L 5.253906 -8.617188 L 5.253906 -7.324219 C 4.847656 -8.269531 4.222656 -8.765625 3.445312 -8.765625 C 1.527344 -8.765625 0.453125 -7.152344 0.453125 -4.308594 C 0.453125 -1.464844 1.527344 0.152344 3.445312 0.152344 C 4.222656 0.152344 4.847656 -0.34375 5.253906 -1.292969 L 5.253906 0 L 8.121094 0 Z M 4.285156 -2.542969 C 3.617188 -2.542969 3.253906 -3.1875 3.253906 -4.308594 C 3.253906 -5.425781 3.617188 -6.074219 4.285156 -6.074219 C 4.910156 -6.074219 5.253906 -5.425781 5.253906 -4.308594 C 5.253906 -3.1875 4.910156 -2.542969 4.285156 -2.542969 Z M 4.285156 -2.542969 "/></g></g></g><g fill="#9f9f9a" fill-opacity="1"><g transform="translate(296.97174, 342.776996)"><g><path d="M 5.558594 -8.765625 C 4.609375 -8.746094 3.898438 -8.25 3.46875 -7.300781 L 3.46875 -8.617188 L 0.601562 -8.617188 L 0.601562 0 L 3.46875 0 L 3.46875 -4.457031 C 3.640625 -5.449219 4.007812 -5.988281 4.5 -5.988281 C 5.082031 -5.988281 5.40625 -5.234375 5.40625 -3.898438 L 5.40625 0 L 8.269531 0 L 8.269531 -4.996094 C 8.269531 -7.410156 7.300781 -8.765625 5.558594 -8.765625 Z M 5.558594 -8.765625 "/></g></g></g><g fill="#9f9f9a" fill-opacity="1"><g transform="translate(305.75924, 342.776996)"><g><path d="M 2.046875 -9.175781 C 2.972656 -9.175781 3.488281 -9.671875 3.488281 -10.53125 C 3.488281 -11.371094 2.972656 -11.867188 2.046875 -11.867188 C 1.140625 -11.867188 0.601562 -11.371094 0.601562 -10.53125 C 0.601562 -9.671875 1.140625 -9.175781 2.046875 -9.175781 Z M 3.488281 -8.617188 L 0.601562 -8.617188 L 0.601562 0 L 3.488281 0 Z M 3.488281 -8.617188 "/></g></g></g><g fill="#9f9f9a" fill-opacity="1"><g transform="translate(309.851459, 342.776996)"><g><path d="M 5.558594 -8.765625 C 4.609375 -8.746094 3.898438 -8.25 3.46875 -7.300781 L 3.46875 -8.617188 L 0.601562 -8.617188 L 0.601562 0 L 3.46875 0 L 3.46875 -4.457031 C 3.640625 -5.449219 4.007812 -5.988281 4.5 -5.988281 C 5.082031 -5.988281 5.40625 -5.234375 5.40625 -3.898438 L 5.40625 0 L 8.269531 0 L 8.269531 -4.996094 C 8.269531 -7.410156 7.300781 -8.765625 5.558594 -8.765625 Z M 5.558594 -8.765625 "/></g></g></g><g fill="#9f9f9a" fill-opacity="1"><g transform="translate(318.638959, 342.776996)"><g><path d="M 8.121094 -8.617188 L 5.253906 -8.617188 L 5.253906 -7.324219 C 4.847656 -8.269531 4.242188 -8.765625 3.445312 -8.765625 C 1.527344 -8.765625 0.453125 -7.152344 0.453125 -4.308594 C 0.453125 -1.464844 1.527344 0.152344 3.445312 0.152344 C 4.242188 0.152344 4.847656 -0.34375 5.253906 -1.292969 L 5.253906 -0.128906 C 5.253906 0.625 4.910156 1.054688 4.285156 1.054688 C 3.53125 1.054688 3.101562 0.753906 3.058594 0.238281 L 0.515625 0.429688 C 0.625 2.347656 2.046875 3.445312 4.480469 3.445312 C 6.804688 3.445312 8.121094 2.152344 8.121094 -0.128906 Z M 4.285156 -2.542969 C 3.617188 -2.542969 3.253906 -3.1875 3.253906 -4.308594 C 3.253906 -5.425781 3.617188 -6.074219 4.285156 -6.074219 C 4.910156 -6.074219 5.253906 -5.425781 5.253906 -4.308594 C 5.253906 -3.1875 4.910156 -2.542969 4.285156 -2.542969 Z M 4.285156 -2.542969 "/></g></g></g><g fill="#9f9f9a" fill-opacity="1"><g transform="translate(121.139935, 168.411427)"><g><path d="M 8.085938 -12.898438 L 1.214844 -11.257812 C 1.214844 -3.804688 4.652344 0.371094 10.625 0.371094 C 16.648438 0.371094 20.03125 -3.804688 20.03125 -11.257812 L 20.03125 -26.429688 L 13.003906 -26.429688 L 13.003906 -11.257812 C 13.003906 -8.296875 12.15625 -6.660156 10.675781 -6.660156 C 9.039062 -6.660156 8.085938 -8.296875 8.085938 -11.257812 Z M 8.085938 -12.898438 "/></g></g></g><g fill="#9f9f9a" fill-opacity="1"><g transform="translate(142.699004, 168.411427)"><g><path d="M 10.519531 0.371094 C 16.542969 0.371094 19.925781 -3.59375 19.925781 -10.570312 C 19.925781 -17.546875 16.542969 -21.511719 10.519531 -21.511719 C 4.492188 -21.511719 1.109375 -17.546875 1.109375 -10.570312 C 1.109375 -3.59375 4.492188 0.371094 10.519531 0.371094 Z M 10.519531 -6.238281 C 8.878906 -6.238281 7.980469 -7.824219 7.980469 -10.570312 C 7.980469 -13.320312 8.878906 -14.90625 10.519531 -14.90625 C 12.15625 -14.90625 13.054688 -13.320312 13.054688 -10.570312 C 13.054688 -7.824219 12.15625 -6.238281 10.519531 -6.238281 Z M 10.519531 -6.238281 "/></g></g></g><g fill="#9f9f9a" fill-opacity="1"><g transform="translate(163.729658, 168.411427)"><g><path d="M 13.476562 -21.511719 C 11.207031 -21.460938 9.515625 -20.242188 8.511719 -17.972656 L 8.511719 -21.144531 L 1.480469 -21.144531 L 1.480469 0 L 8.511719 0 L 8.511719 -8.773438 C 8.878906 -12.578125 9.726562 -14.695312 10.941406 -14.695312 C 12.15625 -14.695312 13.265625 -14.058594 14.113281 -12.84375 L 18.816406 -17.761719 C 17.707031 -20.296875 15.699219 -21.511719 13.476562 -21.511719 Z M 13.476562 -21.511719 "/></g></g></g><g fill="#9f9f9a" fill-opacity="1"><g transform="translate(183.016561, 168.411427)"><g><path d="M 19.925781 -26.429688 L 12.898438 -26.429688 L 12.898438 -17.972656 C 11.894531 -20.296875 10.359375 -21.511719 8.457031 -21.511719 C 3.753906 -21.511719 1.109375 -17.546875 1.109375 -10.570312 C 1.109375 -3.59375 3.753906 0.371094 8.457031 0.371094 C 10.359375 0.371094 11.894531 -0.847656 12.898438 -3.171875 L 12.898438 0 L 19.925781 0 Z M 10.519531 -6.238281 C 8.878906 -6.238281 7.980469 -7.824219 7.980469 -10.570312 C 7.980469 -13.320312 8.878906 -14.90625 10.519531 -14.90625 C 12.050781 -14.90625 12.898438 -13.320312 12.898438 -10.570312 C 12.898438 -7.824219 12.050781 -6.238281 10.519531 -6.238281 Z M 10.519531 -6.238281 "/></g></g></g><g fill="#9f9f9a" fill-opacity="1"><g transform="translate(204.41711, 168.411427)"><g><path d="M 4.863281 5.285156 L 11.257812 5.285156 L 20.667969 -21.144531 L 13.847656 -21.144531 L 10.835938 -12.949219 L 7.398438 -21.144531 L 0.371094 -21.144531 L 7.503906 -2.589844 Z M 4.863281 5.285156 "/></g></g></g><g fill="#9f9f9a" fill-opacity="1"><g transform="translate(225.236407, 168.411427)"><g><path d="M 6.820312 -26.429688 L 1.320312 -26.429688 L 1.320312 -20.878906 L 2.855469 -20.878906 L 1.214844 -17.074219 L 4.703125 -17.074219 L 6.820312 -20.878906 Z M 6.820312 -26.429688 "/></g></g></g><g fill="#9f9f9a" fill-opacity="1"><g transform="translate(233.268221, 168.411427)"><g><path d="M 5.285156 -7.769531 C 6.765625 -6.394531 8.617188 -5.707031 10.253906 -5.707031 C 12.316406 -5.707031 13.476562 -6.132812 13.476562 -6.820312 C 13.476562 -9.195312 0.792969 -5.234375 0.792969 -14.640625 C 0.792969 -19.027344 4.070312 -21.511719 9.882812 -21.511719 C 13.425781 -21.511719 16.753906 -20.03125 18.976562 -17.546875 L 15.222656 -13.425781 C 13.691406 -14.746094 11.894531 -15.488281 10.253906 -15.488281 C 8.140625 -15.488281 6.976562 -15.0625 6.976562 -14.324219 C 6.976562 -12.261719 19.664062 -15.910156 19.664062 -6.5 C 19.664062 -2.113281 16.386719 0.371094 10.570312 0.316406 C 7.398438 0.371094 4.121094 -1.109375 1.480469 -3.59375 Z M 5.285156 -7.769531 "/></g></g></g></svg>