<svg xmlns="http://www.w3.org/2000/svg" xmlns:xlink="http://www.w3.org/1999/xlink" width="500" zoomAndPan="magnify" viewBox="0 0 375 374.999991" height="500" preserveAspectRatio="xMidYMid meet" version="1.0"><defs><clipPath id="ebe40656f3"><path d="M 0 0 L 24.3125 0 L 24.3125 108.398438 L 0 108.398438 Z M 0 0 " clip-rule="nonzero"/></clipPath></defs><g clip-path="url(#ebe40656f3)"><path fill="#f5bfc7" d="M -101.8125 88.550781 L -103.371094 88.875 L -103.371094 88.195312 Z M -88.710938 108.011719 L -87.710938 108.011719 L -87.710938 107.980469 C -88.0625 107.980469 -88.386719 108.011719 -88.710938 108.011719 Z M -39.304688 88.726562 C -42.339844 94.054688 -44.519531 104.980469 -34.09375 103.769531 Z M -22.230469 86.019531 L -21.433594 82.335938 L -17.753906 81.542969 L -21.433594 80.746094 L -22.230469 77.066406 L -23.023438 80.746094 L -26.707031 81.542969 L -23.023438 82.335938 Z M -8.390625 74.328125 L -8.390625 75.035156 C -8.273438 74.917969 -8.15625 74.800781 -8.007812 74.683594 C -8.15625 74.566406 -8.273438 74.445312 -8.390625 74.328125 Z M -103.371094 88.226562 L -103.371094 88.902344 L -101.8125 88.578125 Z M -101.8125 88.550781 L -103.371094 88.875 L -103.371094 88.195312 Z M 24.523438 88.695312 C 24.523438 99.355469 15.898438 108.011719 5.210938 108.011719 L -8.421875 108.011719 L -8.421875 75.035156 C -8.304688 74.917969 -8.1875 74.800781 -8.039062 74.683594 C -8.15625 74.566406 -8.273438 74.445312 -8.421875 74.328125 L -8.421875 60.933594 C -8.421875 59.695312 -7.421875 58.726562 -6.214844 58.726562 L -4.269531 58.726562 C -2.210938 58.726562 -1.265625 56.132812 -2.855469 54.808594 L -3.945312 53.894531 L -15.398438 44.269531 L -23.347656 37.585938 L -34.742188 28.015625 L -40.394531 23.277344 L -46.667969 18.007812 C -47.492188 17.328125 -48.699219 17.328125 -49.523438 18.007812 L -53.4375 21.304688 L -58.121094 25.25 L -70.160156 35.378906 L -74.84375 39.324219 L -87.710938 50.15625 L -93.304688 54.867188 C -94.894531 56.191406 -93.953125 58.785156 -91.890625 58.785156 L -89.945312 58.785156 C -89.09375 58.785156 -88.355469 59.253906 -88.003906 59.960938 C -87.855469 60.285156 -87.738281 60.609375 -87.738281 60.992188 L -87.738281 108.011719 C -88.0625 108.011719 -88.417969 108.039062 -88.738281 108.039062 L -103.371094 108.039062 C -114.03125 108.011719 -122.6875 99.355469 -122.6875 88.695312 C -122.6875 79.628906 -116.445312 72.03125 -107.996094 69.941406 C -107.996094 69.765625 -107.996094 69.558594 -107.996094 69.382812 C -107.996094 63.671875 -105.523438 58.546875 -101.546875 54.984375 C -105.492188 51.453125 -107.964844 46.328125 -107.964844 40.617188 C -107.964844 29.960938 -99.339844 21.332031 -88.679688 21.332031 C -86.972656 21.332031 -85.324219 21.539062 -83.734375 21.980469 C -82.351562 14.855469 -76.050781 9.527344 -68.511719 9.527344 C -66.894531 9.527344 -65.332031 9.761719 -63.859375 10.234375 C -63.214844 0.136719 -54.851562 -7.84375 -44.605469 -7.84375 C -33.949219 -7.84375 -25.320312 0.78125 -25.320312 11.441406 C -25.320312 12.292969 -25.378906 13.117188 -25.46875 13.914062 L -25.320312 13.914062 C -18.84375 13.914062 -13.191406 17.59375 -10.394531 22.980469 C -7.804688 21.921875 -4.976562 21.332031 -2.03125 21.332031 C 10.15625 21.332031 20.050781 31.226562 20.050781 43.414062 C 20.050781 50.511719 16.691406 56.839844 11.480469 60.875 C 12.070312 62.289062 12.394531 63.878906 12.394531 65.496094 C 12.394531 67.234375 12.039062 68.882812 11.363281 70.382812 C 19.019531 72.976562 24.523438 80.1875 24.523438 88.695312 Z M -101.8125 88.550781 L -103.371094 88.226562 L -107.023438 87.429688 L -107.613281 84.75 L -108.171875 82.191406 L -109.289062 87.429688 L -114.53125 88.550781 L -109.289062 89.667969 L -108.171875 94.910156 L -107.640625 92.496094 L -107.023438 89.667969 L -103.371094 88.875 Z M -83.851562 34.464844 L -91.566406 32.816406 L -93.214844 25.101562 L -94.863281 32.816406 L -102.605469 34.464844 L -94.863281 36.113281 L -93.214844 43.855469 L -91.566406 36.113281 Z M 6.5625 45.417969 L 3.296875 46.125 L 6.5625 46.832031 L 7.269531 50.097656 L 7.976562 46.832031 L 11.246094 46.125 L 7.976562 45.417969 L 7.269531 42.148438 Z M -0.53125 35.964844 L 6.445312 34.464844 L -0.53125 32.964844 L -2.03125 25.984375 L -3.535156 32.964844 L -8.863281 34.109375 L -10.542969 34.464844 L -9.039062 34.789062 L -3.5625 35.964844 L -2.0625 42.945312 Z M 19.84375 88.34375 L 12.421875 86.753906 L 10.832031 79.335938 L 9.242188 86.753906 L 5.210938 87.609375 L 1.824219 88.34375 L 5.210938 89.078125 L 9.242188 89.933594 L 10.832031 97.351562 L 12.421875 89.933594 Z M -69.425781 57.695312 L -68.632812 54.015625 L -64.949219 53.21875 L -68.632812 52.425781 L -69.425781 48.742188 L -70.222656 52.425781 L -73.902344 53.21875 L -70.222656 54.015625 Z M -28.796875 67.761719 L -27.648438 62.375 L -22.257812 61.226562 L -27.648438 60.078125 L -28.796875 54.691406 L -29.945312 60.078125 L -35.332031 61.226562 L -29.945312 62.375 Z M -23.023438 80.746094 L -26.707031 81.542969 L -23.023438 82.335938 L -22.230469 86.019531 L -21.433594 82.335938 L -17.753906 81.542969 L -21.433594 80.746094 L -22.230469 77.066406 Z M -103.371094 88.226562 L -103.371094 88.902344 L -101.8125 88.578125 Z M -8.511719 -7.136719 L -9.660156 -1.75 L -15.046875 -0.601562 L -9.660156 0.546875 L -8.511719 5.933594 L -7.363281 0.546875 L -1.972656 -0.601562 L -7.363281 -1.75 Z M -89.859375 5.257812 L -90.59375 8.761719 L -94.097656 9.527344 L -90.59375 10.261719 L -89.859375 13.765625 L -89.121094 10.261719 L -85.617188 9.527344 L -89.121094 8.789062 Z M -34.976562 108.011719 L -16.960938 108.011719 C -18.992188 105.242188 -22.257812 103.449219 -25.96875 103.449219 C -27.351562 103.449219 -28.707031 103.710938 -29.945312 104.183594 L -36.714844 84.308594 L -41.308594 82.394531 C -41.25 82.367188 -47.785156 77.863281 -49.082031 75.125 C -50.316406 72.59375 -50.90625 67.761719 -51.199219 65.203125 C -50.730469 65.320312 -50.257812 65.378906 -49.757812 65.378906 C -46.609375 65.378906 -44.046875 62.816406 -44.046875 59.667969 C -44.046875 56.515625 -46.609375 53.957031 -49.757812 53.957031 C -52.910156 53.957031 -55.46875 56.515625 -55.46875 59.667969 C -55.46875 60.699219 -55.207031 61.667969 -54.703125 62.492188 C -58.121094 63.113281 -61.417969 66.261719 -64.449219 70.648438 C -66.6875 73.886719 -68.777344 77.804688 -70.664062 81.867188 C -74.960938 91.140625 -78.140625 101.179688 -79.464844 105.597656 C -79.90625 107.070312 -80.144531 107.921875 -80.144531 107.921875 L -74.226562 107.921875 L -65.214844 92.523438 L -66.863281 84.839844 C -65.363281 89.050781 -52.027344 107.921875 -52.027344 107.921875 L -44.8125 107.921875 C -44.8125 107.921875 -55.382812 87.902344 -56.03125 78.921875 C -56.824219 77.6875 -57.648438 75.773438 -57.882812 73.621094 C -57.648438 74.535156 -57 75.890625 -56 77.214844 C -56 77.214844 -50.464844 82.367188 -44.695312 82.75 L -38.070312 85.515625 L -31.476562 104.832031 C -32.828125 105.65625 -34.035156 106.714844 -34.976562 108.011719 Z M -34.976562 108.011719 " fill-opacity="1" fill-rule="nonzero"/></g></svg>