<svg xmlns="http://www.w3.org/2000/svg" xmlns:xlink="http://www.w3.org/1999/xlink" width="500" zoomAndPan="magnify" viewBox="0 0 375 374.999991" height="500" preserveAspectRatio="xMidYMid meet" version="1.0"><defs><clipPath id="c43e721c22"><path d="M 344.695312 234.046875 L 375 234.046875 L 375 350 L 344.695312 350 Z M 344.695312 234.046875 " clip-rule="nonzero"/></clipPath></defs><g clip-path="url(#c43e721c22)"><path fill="#f5bfc7" d="M 365.570312 330.449219 L 364.011719 330.773438 L 364.011719 330.097656 Z M 378.671875 349.910156 L 379.675781 349.910156 L 379.675781 349.882812 C 379.320312 349.882812 378.996094 349.910156 378.671875 349.910156 Z M 428.078125 330.625 C 425.042969 335.953125 422.867188 346.878906 433.289062 345.671875 Z M 445.152344 327.917969 L 445.949219 324.238281 L 449.628906 323.441406 L 445.949219 322.648438 L 445.152344 318.964844 L 444.359375 322.648438 L 440.679688 323.441406 L 444.359375 324.238281 Z M 458.992188 316.230469 L 458.992188 316.933594 C 459.109375 316.816406 459.226562 316.699219 459.375 316.582031 C 459.226562 316.464844 459.109375 316.347656 458.992188 316.230469 Z M 364.011719 330.125 L 364.011719 330.800781 L 365.570312 330.480469 Z M 365.570312 330.449219 L 364.011719 330.773438 L 364.011719 330.097656 Z M 491.90625 330.597656 C 491.90625 341.253906 483.28125 349.910156 472.59375 349.910156 L 458.960938 349.910156 L 458.960938 316.933594 C 459.078125 316.816406 459.199219 316.699219 459.34375 316.582031 C 459.226562 316.464844 459.109375 316.347656 458.960938 316.230469 L 458.960938 302.832031 C 458.960938 301.597656 459.964844 300.625 461.171875 300.625 L 463.113281 300.625 C 465.175781 300.625 466.117188 298.035156 464.527344 296.707031 L 463.4375 295.796875 L 451.984375 286.167969 L 444.035156 279.484375 L 432.640625 269.914062 L 426.988281 265.175781 L 420.714844 259.90625 C 419.890625 259.226562 418.683594 259.226562 417.859375 259.90625 L 413.945312 263.203125 L 409.265625 267.148438 L 397.222656 277.277344 L 392.539062 281.222656 L 379.675781 292.054688 L 374.082031 296.765625 C 372.492188 298.09375 373.433594 300.683594 375.492188 300.683594 L 377.4375 300.683594 C 378.289062 300.683594 379.027344 301.152344 379.378906 301.859375 C 379.527344 302.183594 379.644531 302.507812 379.644531 302.890625 L 379.644531 349.910156 C 379.320312 349.910156 378.96875 349.941406 378.644531 349.941406 L 364.011719 349.941406 C 353.351562 349.910156 344.695312 341.253906 344.695312 330.597656 C 344.695312 321.527344 350.9375 313.933594 359.390625 311.839844 C 359.390625 311.664062 359.390625 311.457031 359.390625 311.28125 C 359.390625 305.570312 361.863281 300.449219 365.835938 296.886719 C 361.890625 293.351562 359.417969 288.230469 359.417969 282.515625 C 359.417969 271.859375 368.042969 263.234375 378.703125 263.234375 C 380.410156 263.234375 382.058594 263.4375 383.648438 263.878906 C 385.03125 256.753906 391.332031 251.425781 398.871094 251.425781 C 400.488281 251.425781 402.050781 251.660156 403.523438 252.132812 C 404.171875 242.035156 412.53125 234.054688 422.777344 234.054688 C 433.4375 234.054688 442.0625 242.683594 442.0625 253.339844 C 442.0625 254.195312 442.003906 255.019531 441.914062 255.8125 L 442.0625 255.8125 C 448.539062 255.8125 454.191406 259.492188 456.988281 264.882812 C 459.582031 263.820312 462.40625 263.234375 465.351562 263.234375 C 477.539062 263.234375 487.433594 273.125 487.433594 285.3125 C 487.433594 292.410156 484.078125 298.738281 478.863281 302.773438 C 479.453125 304.1875 479.777344 305.777344 479.777344 307.394531 C 479.777344 309.132812 479.425781 310.78125 478.746094 312.285156 C 486.402344 314.875 491.90625 322.085938 491.90625 330.597656 Z M 365.570312 330.449219 L 364.011719 330.125 L 360.359375 329.332031 L 359.769531 326.652344 L 359.210938 324.089844 L 358.09375 329.332031 L 352.851562 330.449219 L 358.09375 331.566406 L 359.210938 336.808594 L 359.742188 334.394531 L 360.359375 331.566406 L 364.011719 330.773438 Z M 383.53125 276.363281 L 375.816406 274.714844 L 374.167969 267 L 372.519531 274.714844 L 364.777344 276.363281 L 372.519531 278.011719 L 374.167969 285.757812 L 375.816406 278.011719 Z M 473.949219 287.316406 L 470.679688 288.023438 L 473.949219 288.730469 L 474.65625 291.996094 L 475.363281 288.730469 L 478.628906 288.023438 L 475.363281 287.316406 L 474.65625 284.046875 Z M 466.851562 277.867188 L 473.832031 276.363281 L 466.851562 274.863281 L 465.351562 267.882812 L 463.847656 274.863281 L 458.519531 276.011719 L 456.84375 276.363281 L 458.34375 276.6875 L 463.820312 277.867188 L 465.320312 284.84375 Z M 487.226562 330.242188 L 479.808594 328.652344 L 478.21875 321.234375 L 476.628906 328.652344 L 472.59375 329.507812 L 469.207031 330.242188 L 472.59375 330.980469 L 476.628906 331.832031 L 478.21875 339.253906 L 479.808594 331.832031 Z M 397.957031 299.59375 L 398.753906 295.914062 L 402.433594 295.117188 L 398.753906 294.324219 L 397.957031 290.644531 L 397.164062 294.324219 L 393.484375 295.117188 L 397.164062 295.914062 Z M 438.589844 309.664062 L 439.738281 304.273438 L 445.125 303.125 L 439.738281 301.976562 L 438.589844 296.589844 L 437.441406 301.976562 L 432.050781 303.125 L 437.441406 304.273438 Z M 444.359375 322.648438 L 440.679688 323.441406 L 444.359375 324.238281 L 445.152344 327.917969 L 445.949219 324.238281 L 449.628906 323.441406 L 445.949219 322.648438 L 445.152344 318.964844 Z M 364.011719 330.125 L 364.011719 330.800781 L 365.570312 330.480469 Z M 458.875 234.761719 L 457.726562 240.148438 L 452.335938 241.296875 L 457.726562 242.445312 L 458.875 247.835938 L 460.023438 242.445312 L 465.410156 241.296875 L 460.023438 240.148438 Z M 377.523438 247.15625 L 376.789062 250.660156 L 373.285156 251.425781 L 376.789062 252.164062 L 377.523438 255.664062 L 378.261719 252.164062 L 381.765625 251.425781 L 378.261719 250.691406 Z M 432.40625 349.910156 L 450.425781 349.910156 C 448.390625 347.144531 445.125 345.347656 441.414062 345.347656 C 440.03125 345.347656 438.675781 345.613281 437.441406 346.082031 L 430.667969 326.210938 L 426.074219 324.296875 C 426.132812 324.265625 419.597656 319.761719 418.300781 317.023438 C 417.066406 314.492188 416.476562 309.664062 416.183594 307.101562 C 416.652344 307.21875 417.125 307.277344 417.625 307.277344 C 420.777344 307.277344 423.335938 304.714844 423.335938 301.566406 C 423.335938 298.414062 420.777344 295.855469 417.625 295.855469 C 414.476562 295.855469 411.914062 298.414062 411.914062 301.566406 C 411.914062 302.597656 412.179688 303.570312 412.679688 304.394531 C 409.265625 305.011719 405.964844 308.160156 402.933594 312.546875 C 400.695312 315.785156 398.605469 319.703125 396.722656 323.765625 C 392.421875 333.039062 389.242188 343.078125 387.917969 347.496094 C 387.476562 348.96875 387.242188 349.820312 387.242188 349.820312 L 393.160156 349.820312 L 402.167969 334.421875 L 400.519531 326.738281 C 402.019531 330.949219 415.359375 349.820312 415.359375 349.820312 L 422.570312 349.820312 C 422.570312 349.820312 412 329.800781 411.355469 320.820312 C 410.558594 319.585938 409.734375 317.671875 409.5 315.523438 C 409.734375 316.433594 410.382812 317.789062 411.382812 319.113281 C 411.382812 319.113281 416.917969 324.265625 422.6875 324.648438 L 429.3125 327.417969 L 435.910156 346.730469 C 434.554688 347.554688 433.347656 348.613281 432.40625 349.910156 Z M 432.40625 349.910156 " fill-opacity="1" fill-rule="nonzero"/></g></svg>