<svg xmlns="http://www.w3.org/2000/svg" xmlns:xlink="http://www.w3.org/1999/xlink" width="500" zoomAndPan="magnify" viewBox="0 0 375 374.999991" height="500" preserveAspectRatio="xMidYMid meet" version="1.0"><defs><clipPath id="3b1733a584"><path d="M 72.667969 97.09375 L 302.167969 97.09375 L 302.167969 277.84375 L 72.667969 277.84375 Z M 72.667969 97.09375 " clip-rule="nonzero"/></clipPath></defs><g clip-path="url(#3b1733a584)"><path fill="#877eff" d="M 105.234375 247.488281 L 102.796875 247.992188 L 102.796875 246.9375 Z M 125.671875 277.847656 L 127.234375 277.847656 L 127.234375 277.800781 C 126.683594 277.800781 126.179688 277.847656 125.671875 277.847656 Z M 202.746094 247.761719 C 198.015625 256.078125 194.617188 273.117188 210.878906 271.234375 Z M 229.390625 243.535156 L 230.628906 237.796875 L 236.371094 236.554688 L 230.628906 235.316406 L 229.390625 229.574219 L 228.148438 235.316406 L 222.40625 236.554688 L 228.148438 237.796875 Z M 250.976562 225.300781 L 250.976562 226.402344 C 251.160156 226.21875 251.34375 226.035156 251.574219 225.851562 C 251.34375 225.667969 251.160156 225.484375 250.976562 225.300781 Z M 102.796875 246.980469 L 102.796875 248.039062 L 105.234375 247.53125 Z M 105.234375 247.488281 L 102.796875 247.992188 L 102.796875 246.9375 Z M 302.332031 247.714844 C 302.332031 264.34375 288.871094 277.847656 272.199219 277.847656 L 250.929688 277.847656 L 250.929688 226.402344 C 251.113281 226.21875 251.300781 226.035156 251.527344 225.851562 C 251.34375 225.667969 251.160156 225.484375 250.929688 225.300781 L 250.929688 204.402344 C 250.929688 202.472656 252.492188 200.957031 254.375 200.957031 L 257.40625 200.957031 C 260.625 200.957031 262.09375 196.914062 259.613281 194.847656 L 257.914062 193.425781 L 240.046875 178.402344 L 227.644531 167.976562 L 209.867188 153.050781 L 201.046875 145.652344 L 191.265625 137.433594 C 189.980469 136.375 188.09375 136.375 186.808594 137.433594 L 180.699219 142.578125 L 173.398438 148.730469 L 154.609375 164.53125 L 147.308594 170.6875 L 127.234375 187.589844 L 118.507812 194.941406 C 116.027344 197.007812 117.496094 201.050781 120.710938 201.050781 L 123.742188 201.050781 C 125.074219 201.050781 126.222656 201.785156 126.773438 202.886719 C 127.003906 203.390625 127.1875 203.898438 127.1875 204.492188 L 127.1875 277.847656 C 126.683594 277.847656 126.132812 277.894531 125.625 277.894531 L 102.796875 277.894531 C 86.171875 277.847656 72.667969 264.34375 72.667969 247.714844 C 72.667969 233.570312 82.402344 221.71875 95.585938 218.457031 C 95.585938 218.183594 95.585938 217.859375 95.585938 217.585938 C 95.585938 208.671875 99.445312 200.679688 105.644531 195.125 C 99.492188 189.613281 95.632812 181.621094 95.632812 172.707031 C 95.632812 156.082031 109.089844 142.621094 125.71875 142.621094 C 128.382812 142.621094 130.953125 142.945312 133.433594 143.632812 C 135.59375 132.515625 145.421875 124.203125 157.183594 124.203125 C 159.707031 124.203125 162.144531 124.570312 164.441406 125.304688 C 165.449219 109.550781 178.496094 97.101562 194.480469 97.101562 C 211.109375 97.101562 224.566406 110.5625 224.566406 127.1875 C 224.566406 128.519531 224.472656 129.808594 224.335938 131.046875 L 224.566406 131.046875 C 234.671875 131.046875 243.492188 136.789062 247.855469 145.195312 C 251.894531 143.542969 256.304688 142.621094 260.898438 142.621094 C 279.914062 142.621094 295.347656 158.054688 295.347656 177.070312 C 295.347656 188.140625 290.113281 198.015625 281.980469 204.308594 C 282.902344 206.515625 283.40625 208.996094 283.40625 211.523438 C 283.40625 214.230469 282.855469 216.804688 281.796875 219.148438 C 293.742188 223.1875 302.332031 234.441406 302.332031 247.714844 Z M 105.234375 247.488281 L 102.796875 246.980469 L 97.101562 245.742188 L 96.183594 241.5625 L 95.3125 237.566406 L 93.566406 245.742188 L 85.390625 247.488281 L 93.566406 249.234375 L 95.3125 257.410156 L 96.136719 253.640625 L 97.101562 249.234375 L 102.796875 247.992188 Z M 133.25 163.109375 L 121.21875 160.535156 L 118.644531 148.5 L 116.074219 160.535156 L 103.992188 163.109375 L 116.074219 165.679688 L 118.644531 177.761719 L 121.21875 165.679688 Z M 274.3125 180.195312 L 269.210938 181.296875 L 274.3125 182.398438 L 275.414062 187.5 L 276.515625 182.398438 L 281.613281 181.296875 L 276.515625 180.195312 L 275.414062 175.097656 Z M 263.242188 165.449219 L 274.128906 163.109375 L 263.242188 160.765625 L 260.898438 149.878906 L 258.554688 160.765625 L 250.242188 162.558594 L 247.625 163.109375 L 249.96875 163.613281 L 258.511719 165.449219 L 260.851562 176.335938 Z M 295.027344 247.164062 L 283.453125 244.683594 L 280.972656 233.109375 L 278.492188 244.683594 L 272.199219 246.015625 L 266.917969 247.164062 L 272.199219 248.3125 L 278.492188 249.644531 L 280.972656 261.222656 L 283.453125 249.644531 Z M 155.757812 199.347656 L 157 193.609375 L 162.742188 192.367188 L 157 191.128906 L 155.757812 185.386719 L 154.519531 191.128906 L 148.777344 192.367188 L 154.519531 193.609375 Z M 219.144531 215.058594 L 220.9375 206.652344 L 229.34375 204.863281 L 220.9375 203.070312 L 219.144531 194.664062 L 217.355469 203.070312 L 208.949219 204.863281 L 217.355469 206.652344 Z M 228.148438 235.316406 L 222.40625 236.554688 L 228.148438 237.796875 L 229.390625 243.535156 L 230.628906 237.796875 L 236.371094 236.554688 L 230.628906 235.316406 L 229.390625 229.574219 Z M 102.796875 246.980469 L 102.796875 248.039062 L 105.234375 247.53125 Z M 250.792969 98.207031 L 249.003906 106.609375 L 240.597656 108.402344 L 249.003906 110.195312 L 250.792969 118.597656 L 252.585938 110.195312 L 260.992188 108.402344 L 252.585938 106.609375 Z M 123.882812 117.542969 L 122.734375 123.007812 L 117.265625 124.203125 L 122.734375 125.351562 L 123.882812 130.816406 L 125.03125 125.351562 L 130.496094 124.203125 L 125.03125 123.054688 Z M 209.5 277.847656 L 237.609375 277.847656 C 234.441406 273.53125 229.34375 270.730469 223.554688 270.730469 C 221.398438 270.730469 219.285156 271.140625 217.355469 271.878906 L 206.789062 240.871094 L 199.625 237.886719 C 199.714844 237.839844 189.519531 230.8125 187.5 226.542969 C 185.570312 222.589844 184.652344 215.058594 184.191406 211.0625 C 184.925781 211.246094 185.660156 211.339844 186.441406 211.339844 C 191.355469 211.339844 195.351562 207.339844 195.351562 202.425781 C 195.351562 197.511719 191.355469 193.515625 186.441406 193.515625 C 181.527344 193.515625 177.53125 197.511719 177.53125 202.425781 C 177.53125 204.035156 177.945312 205.550781 178.726562 206.835938 C 173.398438 207.800781 168.253906 212.714844 163.519531 219.558594 C 160.03125 224.613281 156.769531 230.722656 153.828125 237.058594 C 147.125 251.527344 142.164062 267.191406 140.09375 274.082031 C 139.40625 276.378906 139.039062 277.710938 139.039062 277.710938 L 148.273438 277.710938 L 162.328125 253.6875 L 159.753906 241.699219 C 162.097656 248.269531 182.90625 277.710938 182.90625 277.710938 L 194.160156 277.710938 C 194.160156 277.710938 177.667969 246.476562 176.65625 232.46875 C 175.417969 230.539062 174.132812 227.550781 173.765625 224.199219 C 174.132812 225.621094 175.140625 227.734375 176.703125 229.804688 C 176.703125 229.804688 185.339844 237.839844 194.34375 238.4375 L 204.675781 242.757812 L 214.964844 272.886719 C 212.851562 274.175781 210.96875 275.828125 209.5 277.847656 Z M 209.5 277.847656 " fill-opacity="1" fill-rule="nonzero"/></g></svg>