<svg xmlns="http://www.w3.org/2000/svg" xmlns:xlink="http://www.w3.org/1999/xlink" width="500" zoomAndPan="magnify" viewBox="0 0 375 374.999991" height="500" preserveAspectRatio="xMidYMid meet" version="1.0"><defs><clipPath id="527ba3b35a"><path d="M 2.242188 70.371094 L 371.992188 70.371094 L 371.992188 361.371094 L 2.242188 361.371094 Z M 2.242188 70.371094 " clip-rule="nonzero"/></clipPath></defs><g clip-path="url(#527ba3b35a)"><path fill="#8a79b5" d="M 54.671875 312.417969 L 50.753906 313.230469 L 50.753906 311.53125 Z M 87.578125 361.285156 L 90.09375 361.285156 L 90.09375 361.210938 C 89.207031 361.210938 88.394531 361.285156 87.578125 361.285156 Z M 211.667969 312.863281 C 204.050781 326.242188 198.578125 353.671875 224.757812 350.640625 Z M 254.558594 306.0625 L 256.554688 296.820312 L 265.796875 294.824219 L 256.554688 292.828125 L 254.558594 283.585938 L 252.5625 292.828125 L 243.316406 294.824219 L 252.5625 296.820312 Z M 289.316406 276.710938 L 289.316406 278.488281 C 289.609375 278.191406 289.90625 277.894531 290.277344 277.597656 C 289.90625 277.304688 289.609375 277.007812 289.316406 276.710938 Z M 50.753906 311.605469 L 50.753906 313.304688 L 54.671875 312.492188 Z M 54.671875 312.417969 L 50.753906 313.230469 L 50.753906 311.53125 Z M 371.992188 312.789062 C 371.992188 339.550781 350.324219 361.285156 323.480469 361.285156 L 289.242188 361.285156 L 289.242188 278.488281 C 289.535156 278.191406 289.832031 277.894531 290.203125 277.597656 C 289.90625 277.304688 289.609375 277.007812 289.242188 276.710938 L 289.242188 243.074219 C 289.242188 239.96875 291.753906 237.53125 294.789062 237.53125 L 299.667969 237.53125 C 304.84375 237.53125 307.210938 231.027344 303.21875 227.699219 L 300.480469 225.40625 L 271.714844 201.234375 L 251.75 184.453125 L 223.128906 160.425781 L 208.929688 148.523438 L 193.179688 135.289062 C 191.109375 133.589844 188.078125 133.589844 186.007812 135.289062 L 176.171875 143.570312 L 164.414062 153.476562 L 134.167969 178.90625 L 122.410156 188.8125 L 90.09375 216.019531 L 76.042969 227.847656 C 72.050781 231.171875 74.417969 237.679688 79.59375 237.679688 L 84.472656 237.679688 C 86.617188 237.679688 88.464844 238.863281 89.355469 240.636719 C 89.722656 241.449219 90.019531 242.261719 90.019531 243.222656 L 90.019531 361.285156 C 89.207031 361.285156 88.320312 361.359375 87.503906 361.359375 L 50.753906 361.359375 C 23.980469 361.285156 2.242188 339.550781 2.242188 312.789062 C 2.242188 290.019531 17.917969 270.945312 39.140625 265.695312 C 39.140625 265.253906 39.140625 264.734375 39.140625 264.292969 C 39.140625 249.949219 45.355469 237.085938 55.335938 228.140625 C 45.425781 219.269531 39.214844 206.40625 39.214844 192.066406 C 39.214844 165.304688 60.882812 143.644531 87.652344 143.644531 C 91.941406 143.644531 96.082031 144.160156 100.078125 145.269531 C 103.550781 127.378906 119.378906 114 138.308594 114 C 142.375 114 146.296875 114.589844 149.992188 115.773438 C 151.621094 90.417969 172.621094 70.382812 198.355469 70.382812 C 225.125 70.382812 246.792969 92.042969 246.792969 118.804688 C 246.792969 120.949219 246.644531 123.019531 246.421875 125.015625 L 246.792969 125.015625 C 263.0625 125.015625 277.261719 134.253906 284.285156 147.785156 C 290.792969 145.121094 297.894531 143.644531 305.289062 143.644531 C 335.902344 143.644531 360.75 168.484375 360.75 199.089844 C 360.75 216.90625 352.320312 232.800781 339.230469 242.925781 C 340.710938 246.476562 341.523438 250.46875 341.523438 254.535156 C 341.523438 258.894531 340.636719 263.035156 338.933594 266.804688 C 358.164062 273.3125 371.992188 291.421875 371.992188 312.789062 Z M 54.671875 312.417969 L 50.753906 311.605469 L 41.582031 309.609375 L 40.101562 302.882812 L 38.699219 296.449219 L 35.886719 309.609375 L 22.726562 312.417969 L 35.886719 315.226562 L 38.699219 328.386719 L 40.03125 322.324219 L 41.582031 315.226562 L 50.753906 313.230469 Z M 99.78125 176.617188 L 80.40625 172.476562 L 76.265625 153.105469 L 72.125 172.476562 L 52.675781 176.617188 L 72.125 180.753906 L 76.265625 200.199219 L 80.40625 180.753906 Z M 326.882812 204.117188 L 318.671875 205.890625 L 326.882812 207.664062 L 328.65625 215.871094 L 330.429688 207.664062 L 338.640625 205.890625 L 330.429688 204.117188 L 328.65625 195.910156 Z M 309.058594 180.386719 L 326.585938 176.617188 L 309.058594 172.84375 L 305.289062 155.324219 L 301.515625 172.84375 L 288.132812 175.726562 L 283.917969 176.617188 L 287.6875 177.429688 L 301.441406 180.386719 L 305.214844 197.90625 Z M 360.234375 311.902344 L 341.597656 307.910156 L 337.605469 289.28125 L 333.609375 307.910156 L 323.480469 310.054688 L 314.976562 311.902344 L 323.480469 313.75 L 333.609375 315.894531 L 337.605469 334.523438 L 341.597656 315.894531 Z M 136.015625 234.945312 L 138.011719 225.703125 L 147.257812 223.707031 L 138.011719 221.710938 L 136.015625 212.46875 L 134.019531 221.710938 L 124.777344 223.707031 L 134.019531 225.703125 Z M 238.066406 260.226562 L 240.953125 246.699219 L 254.484375 243.816406 L 240.953125 240.933594 L 238.066406 227.402344 L 235.183594 240.933594 L 221.652344 243.816406 L 235.183594 246.699219 Z M 252.5625 292.828125 L 243.316406 294.824219 L 252.5625 296.820312 L 254.558594 306.0625 L 256.554688 296.820312 L 265.796875 294.824219 L 256.554688 292.828125 L 254.558594 283.585938 Z M 50.753906 311.605469 L 50.753906 313.304688 L 54.671875 312.492188 Z M 289.019531 72.15625 L 286.136719 85.683594 L 272.601562 88.570312 L 286.136719 91.453125 L 289.019531 104.980469 L 291.902344 91.453125 L 305.4375 88.570312 L 291.902344 85.683594 Z M 84.695312 103.28125 L 82.847656 112.078125 L 74.046875 114 L 82.847656 115.847656 L 84.695312 124.644531 L 86.542969 115.847656 L 95.34375 114 L 86.542969 112.152344 Z M 222.539062 361.285156 L 267.796875 361.285156 C 262.691406 354.335938 254.484375 349.824219 245.167969 349.824219 C 241.691406 349.824219 238.289062 350.492188 235.183594 351.675781 L 218.175781 301.773438 L 206.640625 296.96875 C 206.785156 296.894531 190.371094 285.582031 187.117188 278.707031 C 184.011719 272.351562 182.53125 260.226562 181.792969 253.796875 C 182.976562 254.089844 184.15625 254.238281 185.414062 254.238281 C 193.328125 254.238281 199.761719 247.808594 199.761719 239.898438 C 199.761719 231.988281 193.328125 225.554688 185.414062 225.554688 C 177.503906 225.554688 171.070312 231.988281 171.070312 239.898438 C 171.070312 242.484375 171.734375 244.921875 172.992188 246.992188 C 164.414062 248.546875 156.132812 256.457031 148.515625 267.472656 C 142.894531 275.601562 137.644531 285.4375 132.910156 295.636719 C 122.113281 318.925781 114.128906 344.132812 110.800781 355.222656 C 109.691406 358.917969 109.097656 361.0625 109.097656 361.0625 L 123.960938 361.0625 L 146.589844 322.398438 L 142.449219 303.105469 C 146.222656 313.675781 179.722656 361.0625 179.722656 361.0625 L 197.839844 361.0625 C 197.839844 361.0625 171.289062 310.792969 169.664062 288.246094 C 167.667969 285.140625 165.597656 280.335938 165.003906 274.9375 C 165.597656 277.230469 167.222656 280.628906 169.738281 283.957031 C 169.738281 283.957031 183.640625 296.894531 198.132812 297.855469 L 214.773438 304.804688 L 231.339844 353.300781 C 227.9375 355.371094 224.90625 358.03125 222.539062 361.285156 Z M 222.539062 361.285156 " fill-opacity="1" fill-rule="nonzero"/></g></svg>